<!-- Generator: Adobe Illustrator 24.2.1, SVG Export Plug-In  -->
<svg version="1.1" xmlns="http://www.w3.org/2000/svg" xmlns:xlink="http://www.w3.org/1999/xlink" x="0px" y="0px"
	 width="310.244px" height="55.15px" viewBox="0 0 310.244 55.15"
	 style="overflow:visible;enable-background:new 0 0 310.244 55.15;" xml:space="preserve">
<style type="text/css">
	.st0{fill:#FFFFFF;}
	.st1{fill:none;}
</style>
<defs>
</defs>
<path class="st0" d="M33.123,19.744c0,4.238-1.039,7.462-3.117,9.666c-2.081,2.207-5.125,3.31-9.135,3.31
	c-3.951,0-6.981-1.109-9.089-3.326c-2.11-2.218-3.164-5.446-3.164-9.686c0-4.193,1.049-7.395,3.146-9.607
	c2.097-2.21,5.144-3.316,9.142-3.316c4.009,0,7.048,1.096,9.116,3.292C32.09,12.269,33.123,15.493,33.123,19.744 M15.787,19.744
	c0,4.87,1.694,7.306,5.083,7.306c1.725,0,3.001-0.591,3.834-1.775c0.833-1.184,1.249-3.027,1.249-5.531
	c0-2.517-0.422-4.376-1.267-5.576c-0.843-1.201-2.105-1.8-3.783-1.8C17.493,12.368,15.787,14.826,15.787,19.744"/>
<path class="st0" d="M46.245,12.402c-1.62,0-2.885,0.663-3.79,1.991c-0.909,1.325-1.364,3.154-1.364,5.488
	c0,4.849,1.845,7.272,5.533,7.272c1.115,0,2.194-0.155,3.239-0.465c1.048-0.311,2.098-0.684,3.154-1.121v5.756
	c-2.101,0.93-4.48,1.395-7.134,1.395c-3.803,0-6.718-1.101-8.746-3.307c-2.028-2.207-3.041-5.395-3.041-9.564
	c0-2.609,0.491-4.899,1.473-6.875c0.983-1.978,2.396-3.498,4.241-4.56c1.843-1.063,4.012-1.594,6.505-1.594
	c2.722,0,5.325,0.594,7.807,1.776l-2.085,5.36c-0.93-0.438-1.862-0.804-2.791-1.105C48.313,12.551,47.314,12.402,46.245,12.402"/>
<polygon class="st0" points="66.397,32.375 59.589,32.375 59.589,12.746 53.438,12.746 53.438,7.181 72.532,7.181 72.532,12.746 
	66.397,12.746 "/>
<path class="st0" d="M88.945,32.376l-1.242-4.721h-8.185l-1.275,4.721h-7.478l8.221-25.299h9.081l8.322,25.299H88.945z
	 M86.292,22.07l-1.085-4.137c-0.255-0.919-0.561-2.108-0.923-3.568c-0.362-1.457-0.601-2.503-0.716-3.136
	c-0.103,0.588-0.308,1.553-0.613,2.895c-0.302,1.347-0.979,3.993-2.024,7.946H86.292z"/>
<path class="st0" d="M110.614,7.181h7.617l-8.255,25.194h-8.013L93.744,7.181h7.651l3.429,12.77
	c0.713,2.837,1.103,4.813,1.172,5.926c0.082-0.803,0.242-1.81,0.482-3.015c0.242-1.205,0.454-2.154,0.638-2.844L110.614,7.181z"/>
<rect x="118.306" y="7.18" class="st0" width="6.842" height="25.194"/>
<path class="st0" d="M151.522,19.744c0,4.238-1.04,7.462-3.118,9.666c-2.081,2.207-5.124,3.31-9.135,3.31
	c-3.95,0-6.981-1.109-9.089-3.326c-2.11-2.218-3.163-5.446-3.163-9.686c0-4.193,1.048-7.395,3.144-9.607
	c2.097-2.21,5.144-3.316,9.142-3.316c4.01,0,7.048,1.096,9.116,3.292C150.487,12.269,151.522,15.493,151.522,19.744 M134.185,19.744
	c0,4.87,1.696,7.306,5.083,7.306c1.725,0,3.001-0.591,3.834-1.775c0.833-1.184,1.249-3.027,1.249-5.531
	c0-2.517-0.422-4.376-1.265-5.576c-0.844-1.201-2.107-1.8-3.784-1.8C135.891,12.368,134.185,14.826,134.185,19.744"/>
<polygon class="st0" points="177.901,32.375 158.273,32.375 158.273,28.17 169.181,12.679 158.534,12.679 158.534,7.181 
	177.627,7.181 177.627,11.367 166.718,26.878 177.901,26.878 "/>
<path class="st0" d="M194.314,32.376l-1.241-4.721h-8.185l-1.275,4.721h-7.479l8.222-25.299h9.081l8.322,25.299H194.314z
	 M191.661,22.07l-1.085-4.137c-0.255-0.919-0.56-2.108-0.922-3.568c-0.362-1.457-0.601-2.503-0.716-3.136
	c-0.104,0.588-0.308,1.553-0.613,2.895c-0.303,1.347-0.98,3.993-2.024,7.946H191.661z"/>
<path class="st0" d="M212.813,32.375l-5.154-18.147h-0.155c0.242,3.093,0.362,5.493,0.362,7.204v10.943h-6.032V7.181h9.066
	l5.255,17.888h0.139l5.152-17.888h9.082v25.194h-6.256V21.328c0-0.574,0.007-1.211,0.024-1.912c0.017-0.701,0.096-2.419,0.235-5.154
	h-0.155l-5.086,18.113H212.813z"/>
<path class="st0" d="M256.884,19.744c0,4.238-1.039,7.462-3.117,9.666c-2.082,2.207-5.125,3.31-9.135,3.31
	c-3.951,0-6.981-1.109-9.091-3.326c-2.108-2.218-3.163-5.446-3.163-9.686c0-4.193,1.049-7.395,3.144-9.607
	c2.098-2.21,5.145-3.316,9.144-3.316c4.009,0,7.048,1.096,9.116,3.292C255.851,12.269,256.884,15.493,256.884,19.744
	 M239.549,19.744c0,4.87,1.694,7.306,5.083,7.306c1.725,0,3-0.591,3.833-1.775c0.833-1.184,1.251-3.027,1.251-5.531
	c0-2.517-0.422-4.376-1.267-5.576c-0.843-1.201-2.107-1.8-3.783-1.8C241.253,12.368,239.549,14.826,239.549,19.744"/>
<path class="st0" d="M265.595,23.206v9.168h-6.808V7.18h8.255c6.848,0,10.271,2.482,10.271,7.445c0,2.918-1.427,5.175-4.273,6.774
	l7.34,10.976h-7.72l-5.344-9.168H265.595z M265.595,18.088h1.275c2.379,0,3.566-1.05,3.566-3.154c0-1.733-1.165-2.6-3.498-2.6
	h-1.344V18.088z"/>
<path class="st0" d="M295.483,32.376l-1.242-4.721h-8.185l-1.275,4.721h-7.478l8.221-25.299h9.081l8.322,25.299H295.483z
	 M292.83,22.07l-1.086-4.137c-0.253-0.919-0.56-2.108-0.922-3.568c-0.362-1.457-0.601-2.503-0.716-3.136
	c-0.103,0.588-0.308,1.553-0.613,2.895c-0.303,1.347-0.979,3.993-2.024,7.946H292.83z"/>
<polygon class="st0" points="75.751,49.979 72.61,49.979 72.61,38.171 79.587,38.171 79.587,40.734 75.751,40.734 75.751,42.985 
	79.289,42.985 79.289,45.544 75.751,45.544 "/>
<path class="st0" d="M91.334,44.059c0,1.988-0.487,3.498-1.461,4.531c-0.976,1.035-2.401,1.551-4.279,1.551
	c-1.853,0-3.274-0.521-4.262-1.557c-0.989-1.042-1.481-2.555-1.481-4.541c0-1.966,0.491-3.466,1.474-4.504
	c0.98-1.035,2.41-1.554,4.283-1.554c1.879,0,3.303,0.514,4.272,1.544C90.851,40.555,91.334,42.065,91.334,44.059 M83.21,44.059
	c0,2.284,0.794,3.425,2.384,3.425c0.806,0,1.405-0.278,1.795-0.833c0.391-0.554,0.587-1.417,0.587-2.592
	c0-1.179-0.2-2.049-0.594-2.613c-0.396-0.561-0.986-0.844-1.773-0.844C84.01,40.601,83.21,41.753,83.21,44.059"/>
<polygon class="st0" points="97.436,49.979 94.245,49.979 94.245,40.781 91.362,40.781 91.362,38.171 100.311,38.171 
	100.311,40.781 97.436,40.781 "/>
<path class="st0" d="M111.807,44.059c0,1.988-0.487,3.498-1.461,4.531c-0.975,1.035-2.401,1.551-4.279,1.551
	c-1.852,0-3.274-0.521-4.262-1.557c-0.988-1.042-1.481-2.555-1.481-4.541c0-1.966,0.491-3.466,1.474-4.504
	c0.98-1.035,2.411-1.554,4.283-1.554c1.879,0,3.305,0.514,4.272,1.544C111.323,40.555,111.807,42.065,111.807,44.059
	 M103.682,44.059c0,2.284,0.794,3.425,2.384,3.425c0.807,0,1.405-0.278,1.795-0.833c0.391-0.554,0.587-1.417,0.587-2.592
	c0-1.179-0.199-2.049-0.594-2.613c-0.396-0.561-0.986-0.844-1.773-0.844C104.482,40.601,103.682,41.753,103.682,44.059"/>
<path class="st0" d="M117.441,43.065h5.096v6.364c-1.385,0.475-2.905,0.711-4.563,0.711c-1.822,0-3.229-0.527-4.222-1.583
	c-0.993-1.056-1.488-2.562-1.488-4.515c0-1.906,0.542-3.389,1.63-4.449c1.088-1.061,2.612-1.591,4.573-1.591
	c0.741,0,1.444,0.07,2.102,0.21c0.66,0.139,1.235,0.318,1.725,0.532l-1.01,2.503c-0.849-0.419-1.785-0.63-2.801-0.63
	c-0.932,0-1.652,0.302-2.162,0.909c-0.507,0.605-0.761,1.471-0.761,2.596c0,1.105,0.23,1.948,0.691,2.525
	c0.459,0.58,1.123,0.869,1.989,0.869c0.475,0,0.91-0.047,1.31-0.137v-1.849h-2.108V43.065z"/>
<path class="st0" d="M126.893,45.682v4.298h-3.19V38.17h3.87c3.207,0,4.813,1.165,4.813,3.489c0,1.368-0.668,2.426-2.004,3.177
	l3.44,5.144h-3.618l-2.505-4.298H126.893z M126.893,43.283h0.597c1.115,0,1.673-0.494,1.673-1.478c0-0.813-0.547-1.219-1.64-1.219
	h-0.63V43.283z"/>
<path class="st0" d="M140.902,49.981l-0.581-2.214h-3.837l-0.598,2.214h-3.505l3.853-11.859h4.258l3.9,11.859H140.902z
	 M139.659,45.149l-0.508-1.938c-0.119-0.431-0.263-0.989-0.432-1.673c-0.17-0.683-0.282-1.174-0.336-1.468
	c-0.047,0.273-0.143,0.726-0.285,1.357c-0.145,0.63-0.461,1.871-0.95,3.722H139.659z"/>
<polygon class="st0" points="147.57,49.979 144.428,49.979 144.428,38.171 151.405,38.171 151.405,40.734 147.57,40.734 
	147.57,42.985 151.108,42.985 151.108,45.544 147.57,45.544 "/>
<rect x="152.103" y="38.171" class="st0" width="3.206" height="11.808"/>
<path class="st0" d="M163.866,49.981l-0.581-2.214h-3.838l-0.597,2.214h-3.505l3.851-11.859h4.259l3.9,11.859H163.866z
	 M162.623,45.149l-0.508-1.938c-0.119-0.431-0.263-0.989-0.432-1.673c-0.17-0.683-0.282-1.174-0.338-1.468
	c-0.047,0.273-0.142,0.726-0.285,1.357c-0.143,0.63-0.459,1.871-0.949,3.722H162.623z"/>
<polygon class="st0" points="174.663,42.548 176.698,38.171 180.156,38.171 176.27,45.369 176.27,49.979 173.056,49.979 
	173.056,45.465 169.17,38.171 172.645,38.171 "/>
<path class="st0" d="M193.27,43.825c0,1.972-0.541,3.491-1.626,4.555c-1.086,1.066-2.61,1.6-4.577,1.6h-3.818V38.172h4.086
	c1.895,0,3.359,0.484,4.388,1.453C192.757,40.595,193.27,41.994,193.27,43.825 M189.96,43.938c0-1.083-0.213-1.883-0.643-2.406
	c-0.428-0.524-1.078-0.784-1.951-0.784h-0.929v6.615h0.71c0.97,0,1.682-0.282,2.134-0.844
	C189.734,45.954,189.96,45.096,189.96,43.938"/>
<rect x="194.147" y="38.171" class="st0" width="3.206" height="11.808"/>
<path class="st0" d="M206.386,46.393c0,0.731-0.188,1.383-0.558,1.949c-0.369,0.57-0.907,1.01-1.607,1.327
	c-0.7,0.313-1.521,0.472-2.463,0.472c-0.786,0-1.445-0.056-1.979-0.166c-0.532-0.112-1.086-0.303-1.663-0.577v-2.844
	c0.608,0.312,1.241,0.557,1.898,0.73c0.657,0.176,1.259,0.263,1.81,0.263c0.472,0,0.82-0.082,1.04-0.246
	c0.22-0.165,0.331-0.376,0.331-0.634c0-0.16-0.044-0.303-0.132-0.424c-0.09-0.12-0.232-0.245-0.429-0.368
	c-0.198-0.126-0.72-0.376-1.571-0.76c-0.769-0.351-1.347-0.688-1.732-1.018c-0.385-0.329-0.668-0.707-0.856-1.131
	c-0.186-0.425-0.278-0.929-0.278-1.51c0-1.089,0.395-1.936,1.186-2.545c0.791-0.608,1.879-0.913,3.263-0.913
	c1.222,0,2.467,0.283,3.74,0.849l-0.979,2.465c-1.102-0.508-2.055-0.76-2.858-0.76c-0.415,0-0.716,0.073-0.904,0.218
	c-0.189,0.146-0.282,0.326-0.282,0.542c0,0.23,0.117,0.438,0.358,0.621c0.24,0.182,0.89,0.517,1.951,1
	c1.016,0.456,1.725,0.95,2.121,1.474C206.187,44.934,206.386,45.595,206.386,46.393"/>
<polygon class="st0" points="213.981,49.979 206.971,49.979 206.971,38.171 213.981,38.171 213.981,40.734 210.161,40.734 
	210.161,42.589 213.699,42.589 213.699,45.149 210.161,45.149 210.161,47.379 213.981,47.379 "/>
<path class="st0" d="M226.053,49.98h-4.183l-4.315-8.321h-0.074c0.106,1.309,0.155,2.31,0.155,2.998v5.322h-2.827V38.171h4.169
	l4.296,8.206h0.049c-0.076-1.191-0.113-2.147-0.113-2.868v-5.338h2.844V49.98z M221.852,37.241c-0.243,0-0.487-0.039-0.731-0.119
	c-0.246-0.082-0.488-0.172-0.723-0.269c-0.238-0.096-0.468-0.183-0.69-0.265c-0.223-0.082-0.435-0.122-0.634-0.122
	c-0.293,0-0.487,0.265-0.584,0.793h-1.453c0.06-0.945,0.252-1.64,0.583-2.089c0.326-0.449,0.811-0.674,1.454-0.674
	c0.203,0,0.422,0.041,0.654,0.12c0.23,0.08,0.465,0.17,0.703,0.268c0.236,0.097,0.469,0.185,0.701,0.266
	c0.232,0.08,0.452,0.122,0.654,0.122c0.156,0,0.281-0.067,0.372-0.203c0.092-0.135,0.162-0.331,0.21-0.59h1.47
	c-0.059,0.899-0.259,1.584-0.598,2.055C222.901,37.005,222.438,37.241,221.852,37.241"/>
<path class="st0" d="M238.413,44.059c0,1.988-0.487,3.498-1.463,4.531c-0.975,1.035-2.4,1.551-4.279,1.551
	c-1.852,0-3.273-0.521-4.261-1.557c-0.989-1.042-1.483-2.555-1.483-4.541c0-1.966,0.492-3.466,1.476-4.504
	c0.98-1.035,2.41-1.554,4.283-1.554c1.879,0,3.303,0.514,4.272,1.544C237.929,40.555,238.413,42.065,238.413,44.059 M230.288,44.059
	c0,2.284,0.794,3.425,2.383,3.425c0.807,0,1.407-0.278,1.796-0.833c0.391-0.554,0.585-1.417,0.585-2.592
	c0-1.179-0.199-2.049-0.592-2.613c-0.396-0.561-0.986-0.844-1.773-0.844C231.088,40.601,230.288,41.753,230.288,44.059"/>
<rect class="st1" width="310.244" height="55.15"/>
</svg>