<!-- Generator: Adobe Illustrator 24.2.1, SVG Export Plug-In  -->
<svg version="1.1" xmlns="http://www.w3.org/2000/svg" xmlns:xlink="http://www.w3.org/1999/xlink" x="0px" y="0px"
	 width="238.78px" height="481.735px" viewBox="0 0 238.78 481.735"
	 style="overflow:visible;enable-background:new 0 0 238.78 481.735;" xml:space="preserve">
<style type="text/css">
	.st0{fill:#FFFFFF;}
	.st1{fill:none;stroke:#FFFFFF;stroke-miterlimit:10;}
</style>
<defs>
</defs>
<g>
	<g>
		<g>
			<path class="st0" d="M76.772,228.811c-1.251-2.392-2.323-4.139-3.101-6.009c-0.839-2.018-2.289-2.748-4.34-3.029
				c-2.492-0.342-4.97-0.883-7.406-1.522c-6.279-1.649-10.467-5.596-12.594-11.745c-2.835-8.193-2.832-16.394-0.215-24.636
				c2.255-7.103,7.323-11.041,14.344-12.673c9.045-2.102,18.099-2.111,27.218-0.195c9.655,2.028,14.776,8.035,16.493,17.494
				c1.242,6.838,0.87,13.507-1.416,20.066c-1.941,5.572-5.532,9.586-11.295,11.208c-3.63,1.022-7.361,1.745-11.09,2.321
				c-1.523,0.235-2.44,0.772-3.099,2.089C79.256,224.213,78.154,226.205,76.772,228.811z M78.964,181.775
				c-3.817,0.169-7.445,0.306-11.07,0.497c-2.779,0.146-4.223,1.132-4.398,3.954c-0.286,4.615-0.262,9.271-0.006,13.889
				c0.145,2.612,1.617,3.763,4.285,3.793c7.41,0.083,14.821,0.035,22.231,0.006c2.504-0.01,4.223-1.343,4.341-3.789
				c0.223-4.628,0.289-9.285,0.019-13.906c-0.159-2.715-1.725-3.79-4.47-3.941C86.193,182.075,82.486,181.935,78.964,181.775z"/>
			<path class="st0" d="M75.009,187.551c1.942,0.973,3.559,1.755,5.149,2.587c1.453,0.76,2.877,1.574,4.963,2.721
				c-3.564,1.841-6.629,3.425-10.112,5.224C75.009,194.429,75.009,191.22,75.009,187.551z"/>
		</g>
		<g>
			<g>
				<path class="st0" d="M49.097,13.439c1.259-0.214,3.029-0.375,5.522-0.375c2.519,0,4.314,0.482,5.521,1.447
					c1.153,0.911,1.93,2.412,1.93,4.181c0,1.768-0.589,3.269-1.661,4.289c-1.393,1.312-3.458,1.902-5.87,1.902
					c-0.535,0-1.019-0.028-1.393-0.08v6.459h-4.047V13.439z M53.144,21.641c0.348,0.08,0.777,0.108,1.367,0.108
					c2.171,0,3.511-1.099,3.511-2.95c0-1.661-1.153-2.653-3.189-2.653c-0.831,0-1.395,0.08-1.689,0.16V21.641z"/>
				<path class="st0" d="M63.325,13.197h4.101v14.635h7.182v3.431H63.325V13.197z"/>
				<path class="st0" d="M80.045,26.625l-1.286,4.637h-4.235l5.521-18.066h5.36l5.602,18.066h-4.396l-1.393-4.637H80.045z
					 M84.628,23.571l-1.125-3.833c-0.322-1.073-0.644-2.412-0.912-3.483h-0.053c-0.268,1.071-0.536,2.438-0.831,3.483l-1.073,3.833
					H84.628z"/>
				<path class="st0" d="M92.074,31.263V13.197h4.771l3.751,6.621c1.073,1.903,2.145,4.155,2.948,6.192h0.08
					c-0.268-2.387-0.348-4.825-0.348-7.532v-5.281h3.753v18.066h-4.288l-3.861-6.969c-1.071-1.93-2.252-4.261-3.135-6.378
					l-0.081,0.026c0.108,2.384,0.162,4.932,0.162,7.879v5.442H92.074z"/>
				<path class="st0" d="M117.396,13.197v18.066h-4.101V13.197H117.396z"/>
				<path class="st0" d="M119.591,31.263V13.197h4.771l3.751,6.621c1.073,1.903,2.145,4.155,2.948,6.192h0.08
					c-0.268-2.387-0.348-4.825-0.348-7.532v-5.281h3.753v18.066h-4.288l-3.861-6.969c-1.071-1.93-2.252-4.261-3.135-6.378
					l-0.081,0.026c0.108,2.384,0.162,4.932,0.162,7.879v5.442H119.591z"/>
				<path class="st0" d="M140.84,13.197v18.066h-4.1V13.197H140.84z"/>
				<path class="st0" d="M156.303,30.753c-0.751,0.376-2.44,0.778-4.637,0.778c-6.245,0-9.461-3.886-9.461-9.033
					c0-6.165,4.396-9.596,9.864-9.596c2.118,0,3.725,0.429,4.449,0.804l-0.831,3.244c-0.831-0.35-1.984-0.67-3.431-0.67
					c-3.243,0-5.763,1.956-5.763,5.976c0,3.62,2.144,5.897,5.789,5.897c1.233,0,2.6-0.267,3.404-0.589L156.303,30.753z"/>
				<path class="st0" d="M161.739,13.197v18.066h-4.101V13.197H161.739z"/>
				<path class="st0" d="M168.142,26.625l-1.286,4.637h-4.235l5.521-18.066h5.36l5.602,18.066h-4.396l-1.393-4.637H168.142z
					 M172.726,23.571l-1.125-3.833c-0.322-1.073-0.644-2.412-0.912-3.483h-0.053c-0.268,1.071-0.536,2.438-0.831,3.483l-1.073,3.833
					H172.726z"/>
				<path class="st0" d="M180.172,13.197h4.1v14.635h7.184v3.431h-11.283V13.197z"/>
			</g>
		</g>
		<g>
			<g>
				<g>
					<path class="st0" d="M76.799,157.71c-1.153-2.145-2.193-3.714-2.868-5.427c-0.929-2.356-2.557-3.177-4.99-3.536
						c-3.173-0.468-6.317-1.335-9.374-2.336c-4.175-1.366-7.266-4.206-9.015-8.215c-4.608-10.561-4.57-21.062,0.586-31.509
						c1.943-3.937,5.254-5.977,9.121-7.258c11.522-3.817,23.107-3.725,34.623,0.015c5.663,1.839,9.192,5.915,11.009,11.517
						c2.801,8.634,2.739,17.217-0.58,25.708c-1.882,4.816-5.139,8.394-10.156,9.871c-3.912,1.152-7.989,1.734-11.95,2.734
						c-1.004,0.253-2.145,0.936-2.708,1.77C79.196,152.971,78.21,155.11,76.799,157.71z M72.034,131.863c0.003,0,0.005,0,0.008,0
						c0,1.499,0,2.998,0,4.496c-0.001,4.639-0.003,4.585,4.746,4.433c1.61-0.052,2.236-0.608,2.209-2.246
						c-0.071-4.337,0.019-8.677-0.04-13.015c-0.021-1.536,0.393-2.299,2.101-2.353c3.267-0.103,3.45-0.503,3.586-4.722
						c0.092-2.848-2.018-1.858-3.332-1.889c-1.858-0.044-2.3-0.927-2.169-2.544c0.196-2.422,1.951-2.157,3.624-2.353
						c0.68-0.079,1.798-0.928,1.798-1.428c0.001-1.363-0.082-3.592-0.846-3.95c-5.549-2.593-11.494,1.18-11.675,7.2
						c-0.05,1.667-0.003,2.835-2.304,3.223c-2.12,0.357-0.827,2.646-1.077,4.057c-0.251,1.414,0.191,2.371,1.934,2.56
						c0.542,0.059,1.316,1.208,1.373,1.908C72.147,127.437,72.034,129.655,72.034,131.863z"/>
				</g>
			</g>
			<g>
				<g>
					<path class="st0" d="M160.45,157.898c-1.226-2.349-2.315-4.089-3.065-5.965c-0.819-2.049-2.278-2.771-4.317-3.008
						c-2.029-0.236-4.043-0.656-6.04-1.102c-8.271-1.846-13.089-7.08-14.965-15.247c-1.949-8.486-1.567-16.759,2.185-24.709
						c1.748-3.704,4.534-6.436,8.444-7.85c12.001-4.34,24.079-4.443,36.167-0.424c5.13,1.706,8.491,5.368,10.327,10.371
						c3.19,8.693,3.224,17.437,0.071,26.161c-1.946,5.384-5.545,9.199-11.098,10.777c-3.624,1.03-7.356,1.732-11.08,2.329
						c-1.501,0.241-2.427,0.735-3.087,2.09C162.997,153.364,161.845,155.329,160.45,157.898z M161.322,138.333
						c0,0.004,0,0.009,0,0.013c2.684,0,5.368,0.038,8.051-0.009c3.815-0.067,6.341-2.335,6.432-6.114
						c0.138-5.68,0.142-11.368-0.007-17.047c-0.094-3.578-2.701-5.994-6.317-6.05c-5.524-0.087-11.052-0.104-16.575-0.009
						c-3.62,0.062-6.134,2.577-6.186,6.159c-0.082,5.682-0.087,11.368,0.022,17.049c0.067,3.504,2.556,5.893,6.056,5.992
						C155.637,138.397,158.481,138.333,161.322,138.333z"/>
					<path class="st0" d="M161.211,136.08c-2.682,0-5.366,0.056-8.046-0.016c-2.667-0.071-4.139-1.466-4.178-4.118
						c-0.078-5.363-0.074-10.729-0.003-16.093c0.038-2.88,1.552-4.427,4.403-4.471c5.284-0.081,10.572-0.082,15.856,0
						c2.728,0.042,4.267,1.574,4.31,4.311c0.084,5.363,0.082,10.73-0.008,16.093c-0.049,2.879-1.577,4.238-4.524,4.285
						C166.419,136.112,163.815,136.079,161.211,136.08z M161.223,131.227c4.161,0.04,7.533-3.256,7.57-7.4
						c0.037-4.08-3.385-7.569-7.454-7.602c-4.115-0.033-7.535,3.352-7.555,7.477C153.765,127.905,157.008,131.186,161.223,131.227z
						 M171.633,115.834c-0.882-0.706-1.424-1.48-1.971-1.483c-0.545-0.003-1.095,0.766-1.642,1.197c0.496,0.589,0.9,1.47,1.52,1.666
						C169.954,117.345,170.677,116.501,171.633,115.834z"/>
					<path class="st0" d="M161.211,128.967c-2.899-0.034-5.256-2.46-5.18-5.331c0.076-2.865,2.58-5.252,5.404-5.153
						c2.717,0.095,5.077,2.54,5.078,5.26C166.513,126.62,164.097,129.001,161.211,128.967z"/>
				</g>
			</g>
		</g>
		<rect x="0.5" y="0.5" class="st1" width="237.78" height="480.735"/>
		<g>
			<g>
				<path class="st0" d="M33.777,271.22v0.874h-3.323v-0.874H33.777z"/>
				<path class="st0" d="M38.865,267.655h-0.026l-1.521,0.82l-0.229-0.902l1.911-1.021h1.008v8.744h-1.144V267.655z"/>
				<path class="st0" d="M42.529,275.296v-0.727l0.928-0.9c2.233-2.125,3.241-3.256,3.255-4.574c0-0.889-0.43-1.709-1.735-1.709
					c-0.794,0-1.452,0.404-1.856,0.74l-0.377-0.833c0.606-0.511,1.467-0.889,2.475-0.889c1.884,0,2.678,1.292,2.678,2.542
					c0,1.614-1.17,2.919-3.013,4.695l-0.701,0.645v0.028h3.929v0.982H42.529z"/>
				<path class="st0" d="M51.358,266.337c0.565-0.095,1.305-0.175,2.246-0.175c1.157,0,2.005,0.269,2.542,0.753
					c0.498,0.43,0.794,1.09,0.794,1.897c0,0.82-0.242,1.467-0.699,1.938c-0.619,0.659-1.627,0.995-2.771,0.995
					c-0.35,0-0.673-0.013-0.942-0.08v3.632h-1.17V266.337z M52.528,270.709c0.256,0.067,0.578,0.095,0.969,0.095
					c1.413,0,2.274-0.686,2.274-1.938c0-1.197-0.848-1.776-2.14-1.776c-0.51,0-0.9,0.041-1.103,0.095V270.709z"/>
				<path class="st0" d="M63.361,271.986c0,2.408-1.668,3.458-3.243,3.458c-1.761,0-3.121-1.292-3.121-3.351
					c0-2.179,1.426-3.457,3.228-3.457C62.097,268.637,63.361,269.996,63.361,271.986z M58.196,272.055
					c0,1.425,0.82,2.501,1.977,2.501c1.13,0,1.978-1.062,1.978-2.529c0-1.103-0.552-2.503-1.951-2.503
					C58.8,269.524,58.196,270.816,58.196,272.055z"/>
				<path class="st0" d="M64.024,274.085c0.35,0.229,0.969,0.471,1.56,0.471c0.861,0,1.266-0.43,1.266-0.969
					c0-0.565-0.337-0.874-1.212-1.197c-1.17-0.417-1.722-1.062-1.722-1.843c0-1.049,0.848-1.91,2.248-1.91
					c0.659,0,1.237,0.188,1.6,0.404l-0.296,0.861c-0.255-0.162-0.726-0.377-1.332-0.377c-0.699,0-1.09,0.404-1.09,0.889
					c0,0.538,0.39,0.781,1.238,1.103c1.129,0.431,1.707,0.995,1.707,1.964c0,1.144-0.887,1.951-2.434,1.951
					c-0.712,0-1.372-0.175-1.83-0.443L64.024,274.085z"/>
				<path class="st0" d="M70.269,266.915v1.87h1.694v0.9h-1.694v3.511c0,0.807,0.229,1.264,0.887,1.264
					c0.31,0,0.539-0.039,0.686-0.08l0.054,0.889c-0.229,0.093-0.592,0.16-1.049,0.16c-0.552,0-0.995-0.175-1.278-0.497
					c-0.337-0.35-0.457-0.929-0.457-1.696v-3.552h-1.009v-0.9h1.009v-1.562L70.269,266.915z"/>
				<path class="st0" d="M74.805,270.911c0-0.835-0.026-1.508-0.054-2.125h1.063l0.054,1.116h0.026
					c0.485-0.794,1.251-1.264,2.313-1.264c1.575,0,2.758,1.332,2.758,3.31c0,2.34-1.425,3.498-2.959,3.498
					c-0.861,0-1.614-0.377-2.005-1.023h-0.026v3.537h-1.171V270.911z M75.976,272.646c0,0.175,0.026,0.336,0.053,0.484
					c0.216,0.822,0.929,1.385,1.776,1.385c1.251,0,1.978-1.021,1.978-2.515c0-1.305-0.686-2.423-1.938-2.423
					c-0.807,0-1.56,0.578-1.789,1.467c-0.041,0.149-0.08,0.323-0.08,0.484V272.646z"/>
				<path class="st0" d="M87.683,271.986c0,2.408-1.668,3.458-3.243,3.458c-1.761,0-3.121-1.292-3.121-3.351
					c0-2.179,1.426-3.457,3.228-3.457C86.418,268.637,87.683,269.996,87.683,271.986z M82.517,272.055
					c0,1.425,0.82,2.501,1.977,2.501c1.13,0,1.978-1.062,1.978-2.529c0-1.103-0.552-2.503-1.951-2.503
					C83.122,269.524,82.517,270.816,82.517,272.055z"/>
				<path class="st0" d="M88.507,270.816c0-0.766-0.013-1.426-0.054-2.031h1.036l0.041,1.278h0.054
					c0.296-0.874,1.008-1.426,1.802-1.426c0.135,0,0.229,0.013,0.337,0.041v1.116c-0.121-0.026-0.242-0.041-0.404-0.041
					c-0.833,0-1.426,0.632-1.588,1.521c-0.026,0.162-0.053,0.35-0.053,0.552v3.47h-1.171V270.816z"/>
				<path class="st0" d="M94.416,270.547c0-0.672-0.013-1.224-0.054-1.761h1.036l0.054,1.049h0.041
					c0.363-0.619,0.969-1.197,2.044-1.197c0.889,0,1.562,0.538,1.844,1.305h0.026c0.202-0.364,0.457-0.647,0.727-0.848
					c0.39-0.296,0.82-0.457,1.439-0.457c0.861,0,2.139,0.565,2.139,2.825v3.834h-1.157v-3.686c0-1.251-0.457-2.005-1.413-2.005
					c-0.672,0-1.197,0.498-1.399,1.077c-0.054,0.16-0.095,0.376-0.095,0.591v4.022h-1.157v-3.901c0-1.036-0.457-1.789-1.359-1.789
					c-0.739,0-1.278,0.591-1.466,1.183c-0.067,0.176-0.095,0.377-0.095,0.58v3.928h-1.157V270.547z"/>
				<path class="st0" d="M105.628,272.256c0.026,1.601,1.049,2.26,2.232,2.26c0.848,0,1.359-0.147,1.803-0.335l0.201,0.846
					c-0.417,0.189-1.129,0.404-2.165,0.404c-2.005,0-3.202-1.318-3.202-3.282c0-1.964,1.157-3.511,3.053-3.511
					c2.125,0,2.691,1.87,2.691,3.067c0,0.243-0.026,0.431-0.041,0.552H105.628z M109.098,271.408
					c0.013-0.753-0.309-1.923-1.642-1.923c-1.196,0-1.722,1.103-1.815,1.923H109.098z"/>
				<path class="st0" d="M110.876,274.085c0.35,0.229,0.969,0.471,1.56,0.471c0.861,0,1.266-0.43,1.266-0.969
					c0-0.565-0.337-0.874-1.212-1.197c-1.17-0.417-1.722-1.062-1.722-1.843c0-1.049,0.848-1.91,2.248-1.91
					c0.659,0,1.237,0.188,1.6,0.404l-0.296,0.861c-0.255-0.162-0.726-0.377-1.332-0.377c-0.699,0-1.09,0.404-1.09,0.889
					c0,0.538,0.39,0.781,1.238,1.103c1.129,0.431,1.707,0.995,1.707,1.964c0,1.144-0.887,1.951-2.434,1.951
					c-0.712,0-1.372-0.175-1.83-0.443L110.876,274.085z"/>
				<path class="st0" d="M33.777,290.064v0.874h-3.323v-0.874H33.777z"/>
				<path class="st0" d="M44.354,290.159c-0.067-1.264-0.149-2.785-0.134-3.916H44.18c-0.31,1.063-0.686,2.194-1.144,3.444
					l-1.601,4.4h-0.887l-1.467-4.318c-0.43-1.278-0.794-2.449-1.049-3.525h-0.028c-0.026,1.13-0.093,2.651-0.175,4.009l-0.242,3.888
					h-1.116l0.632-9.067h1.493l1.547,4.385c0.376,1.117,0.686,2.112,0.915,3.055h0.039c0.229-0.915,0.552-1.911,0.956-3.055
					l1.614-4.385h1.493l0.565,9.067h-1.144L44.354,290.159z"/>
				<path class="st0" d="M50.507,294.14l-0.095-0.82h-0.039c-0.364,0.511-1.063,0.969-1.991,0.969c-1.318,0-1.991-0.929-1.991-1.87
					c0-1.573,1.4-2.434,3.914-2.421v-0.135c0-0.538-0.147-1.506-1.479-1.506c-0.606,0-1.238,0.189-1.696,0.485l-0.269-0.781
					c0.539-0.35,1.318-0.578,2.14-0.578c1.99,0,2.475,1.359,2.475,2.663v2.436c0,0.565,0.026,1.116,0.108,1.56H50.507z
					 M50.333,290.817c-1.292-0.026-2.758,0.202-2.758,1.467c0,0.766,0.511,1.129,1.116,1.129c0.848,0,1.385-0.538,1.575-1.09
					c0.039-0.121,0.067-0.255,0.067-0.376V290.817z"/>
				<path class="st0" d="M52.717,289.391c0-0.672-0.013-1.224-0.054-1.761h1.049l0.068,1.075h0.026
					c0.323-0.618,1.077-1.224,2.153-1.224c0.9,0,2.3,0.538,2.3,2.771v3.888h-1.184v-3.753c0-1.05-0.39-1.924-1.506-1.924
					c-0.781,0-1.385,0.552-1.588,1.211c-0.054,0.149-0.08,0.35-0.08,0.552v3.914h-1.184V289.391z"/>
				<path class="st0" d="M60.174,291.1c0.026,1.601,1.049,2.26,2.232,2.26c0.848,0,1.359-0.147,1.803-0.335l0.201,0.846
					c-0.417,0.189-1.129,0.404-2.165,0.404c-2.005,0-3.202-1.318-3.202-3.282s1.157-3.511,3.053-3.511
					c2.125,0,2.691,1.87,2.691,3.067c0,0.243-0.026,0.431-0.041,0.552H60.174z M63.644,290.252c0.013-0.753-0.309-1.923-1.642-1.923
					c-1.196,0-1.722,1.103-1.815,1.923H63.644z"/>
				<path class="st0" d="M63.996,296.024c0.539-0.041,1.01-0.188,1.292-0.498c0.323-0.376,0.444-0.887,0.444-2.449v-5.447h1.183
					v5.905c0,1.264-0.201,2.086-0.779,2.678c-0.524,0.524-1.385,0.74-2.018,0.74L63.996,296.024z M67.051,285.8
					c0.013,0.389-0.269,0.726-0.74,0.726c-0.444,0-0.727-0.337-0.727-0.726c0-0.418,0.31-0.74,0.753-0.74
					C66.769,285.06,67.051,285.382,67.051,285.8z"/>
				<path class="st0" d="M74.074,290.83c0,2.408-1.668,3.458-3.243,3.458c-1.761,0-3.121-1.292-3.121-3.351
					c0-2.179,1.426-3.457,3.228-3.457C72.81,287.481,74.074,288.84,74.074,290.83z M68.908,290.899c0,1.425,0.82,2.501,1.977,2.501
					c1.13,0,1.978-1.062,1.978-2.529c0-1.103-0.552-2.503-1.951-2.503C69.513,288.368,68.908,289.66,68.908,290.899z"/>
				<path class="st0" d="M82.702,284.589v7.87c0,0.578,0.013,1.237,0.054,1.681h-1.062l-0.054-1.13h-0.028
					c-0.363,0.727-1.157,1.279-2.22,1.279c-1.573,0-2.784-1.333-2.784-3.31c-0.013-2.166,1.332-3.498,2.919-3.498
					c0.995,0,1.668,0.471,1.964,0.995h0.026v-3.887H82.702z M81.518,290.28c0-0.149-0.013-0.35-0.053-0.498
					c-0.176-0.753-0.822-1.372-1.709-1.372c-1.225,0-1.951,1.077-1.951,2.516c0,1.318,0.645,2.408,1.923,2.408
					c0.794,0,1.521-0.524,1.736-1.413c0.039-0.16,0.053-0.322,0.053-0.511V290.28z"/>
				<path class="st0" d="M84.657,291.1c0.026,1.601,1.049,2.26,2.232,2.26c0.848,0,1.359-0.147,1.803-0.335l0.201,0.846
					c-0.417,0.189-1.129,0.404-2.165,0.404c-2.005,0-3.202-1.318-3.202-3.282s1.157-3.511,3.053-3.511
					c2.125,0,2.691,1.87,2.691,3.067c0,0.243-0.026,0.431-0.041,0.552H84.657z M88.127,290.252c0.013-0.753-0.309-1.923-1.642-1.923
					c-1.196,0-1.722,1.103-1.815,1.923H88.127z"/>
				<path class="st0" d="M90.067,284.589h1.184v9.551h-1.184V284.589z"/>
				<path class="st0" d="M94.752,289.755c0-0.835-0.026-1.508-0.054-2.125h1.063l0.054,1.116h0.026
					c0.485-0.794,1.251-1.265,2.313-1.265c1.575,0,2.758,1.332,2.758,3.31c0,2.34-1.425,3.498-2.959,3.498
					c-0.861,0-1.614-0.377-2.005-1.023h-0.028v3.537h-1.17V289.755z M95.922,291.49c0,0.175,0.028,0.336,0.054,0.484
					c0.216,0.822,0.929,1.385,1.776,1.385c1.251,0,1.978-1.021,1.978-2.515c0-1.305-0.686-2.423-1.938-2.423
					c-0.807,0-1.56,0.578-1.789,1.467c-0.041,0.149-0.081,0.323-0.081,0.484V291.49z"/>
				<path class="st0" d="M102.397,291.1c0.026,1.601,1.049,2.26,2.232,2.26c0.848,0,1.359-0.147,1.803-0.335l0.201,0.846
					c-0.417,0.189-1.129,0.404-2.165,0.404c-2.005,0-3.202-1.318-3.202-3.282s1.157-3.511,3.053-3.511
					c2.125,0,2.691,1.87,2.691,3.067c0,0.243-0.026,0.431-0.041,0.552H102.397z M105.867,290.252
					c0.013-0.753-0.309-1.923-1.642-1.923c-1.196,0-1.722,1.103-1.815,1.923H105.867z"/>
				<path class="st0" d="M107.807,289.66c0-0.766-0.013-1.426-0.054-2.031h1.036l0.041,1.278h0.054
					c0.296-0.874,1.008-1.426,1.802-1.426c0.135,0,0.229,0.013,0.337,0.041v1.116c-0.121-0.026-0.242-0.041-0.404-0.041
					c-0.833,0-1.426,0.632-1.588,1.521c-0.026,0.162-0.054,0.35-0.054,0.552v3.47h-1.17V289.66z"/>
				<path class="st0" d="M112.061,294.14v-5.61h-0.915v-0.9h0.915v-0.351c0-1.722,1.01-2.838,2.839-2.838
					c0.605,0,1.318,0.188,1.654,0.431l-0.335,0.9c-0.283-0.201-0.794-0.376-1.372-0.376c-1.251,0-1.614,0.874-1.614,1.91v0.323
					h3.779v6.51h-1.17v-5.61h-2.609v5.61H112.061z"/>
				<path class="st0" d="M118.306,284.589h1.184v9.551h-1.184V284.589z"/>
				<path class="st0" d="M128.614,284.589v7.87c0,0.578,0.013,1.237,0.054,1.681h-1.062l-0.054-1.13h-0.028
					c-0.363,0.727-1.157,1.279-2.22,1.279c-1.573,0-2.784-1.333-2.784-3.31c-0.013-2.166,1.332-3.498,2.919-3.498
					c0.995,0,1.668,0.471,1.964,0.995h0.026v-3.887H128.614z M127.429,290.28c0-0.149-0.013-0.35-0.053-0.498
					c-0.176-0.753-0.822-1.372-1.709-1.372c-1.225,0-1.951,1.077-1.951,2.516c0,1.318,0.645,2.408,1.923,2.408
					c0.794,0,1.521-0.524,1.736-1.413c0.039-0.16,0.053-0.322,0.053-0.511V290.28z"/>
				<path class="st0" d="M130.568,291.1c0.026,1.601,1.049,2.26,2.232,2.26c0.848,0,1.359-0.147,1.803-0.335l0.201,0.846
					c-0.417,0.189-1.129,0.404-2.165,0.404c-2.005,0-3.202-1.318-3.202-3.282s1.157-3.511,3.053-3.511
					c2.125,0,2.691,1.87,2.691,3.067c0,0.243-0.026,0.431-0.041,0.552H130.568z M134.039,290.252
					c0.013-0.753-0.309-1.923-1.642-1.923c-1.196,0-1.722,1.103-1.815,1.923H134.039z"/>
				<path class="st0" d="M143.608,292.364c0,0.673,0.013,1.264,0.054,1.776h-1.049l-0.067-1.063h-0.028
					c-0.309,0.526-0.995,1.212-2.152,1.212c-1.023,0-2.248-0.565-2.248-2.852v-3.807h1.184v3.604c0,1.238,0.377,2.072,1.452,2.072
					c0.794,0,1.346-0.551,1.562-1.075c0.067-0.175,0.106-0.39,0.106-0.606v-3.995h1.184V292.364z"/>
				<path class="st0" d="M144.741,292.93c0.35,0.229,0.969,0.471,1.56,0.471c0.861,0,1.266-0.43,1.266-0.969
					c0-0.565-0.337-0.874-1.212-1.197c-1.17-0.417-1.722-1.062-1.722-1.843c0-1.049,0.848-1.91,2.248-1.91
					c0.659,0,1.237,0.188,1.6,0.404l-0.296,0.861c-0.255-0.162-0.726-0.377-1.332-0.377c-0.699,0-1.09,0.404-1.09,0.889
					c0,0.538,0.39,0.781,1.238,1.103c1.129,0.431,1.707,0.995,1.707,1.964c0,1.144-0.887,1.951-2.434,1.951
					c-0.712,0-1.372-0.175-1.83-0.443L144.741,292.93z"/>
				<path class="st0" d="M155.008,292.364c0,0.673,0.013,1.264,0.054,1.776h-1.049l-0.067-1.063h-0.028
					c-0.309,0.526-0.995,1.212-2.152,1.212c-1.023,0-2.248-0.565-2.248-2.852v-3.807h1.184v3.604c0,1.238,0.377,2.072,1.452,2.072
					c0.794,0,1.346-0.551,1.562-1.075c0.067-0.175,0.106-0.39,0.106-0.606v-3.995h1.184V292.364z"/>
				<path class="st0" d="M159.908,294.14l-0.095-0.82h-0.039c-0.364,0.511-1.063,0.969-1.991,0.969c-1.318,0-1.991-0.929-1.991-1.87
					c0-1.573,1.4-2.434,3.914-2.421v-0.135c0-0.538-0.147-1.506-1.479-1.506c-0.606,0-1.238,0.189-1.696,0.485l-0.269-0.781
					c0.539-0.35,1.318-0.578,2.14-0.578c1.99,0,2.475,1.359,2.475,2.663v2.436c0,0.565,0.026,1.116,0.108,1.56H159.908z
					 M159.734,290.817c-1.292-0.026-2.758,0.202-2.758,1.467c0,0.766,0.511,1.129,1.116,1.129c0.848,0,1.385-0.538,1.575-1.09
					c0.039-0.121,0.067-0.255,0.067-0.376V290.817z"/>
				<path class="st0" d="M162.118,289.66c0-0.766-0.013-1.426-0.054-2.031h1.036l0.041,1.278h0.054
					c0.296-0.874,1.008-1.426,1.802-1.426c0.135,0,0.229,0.013,0.337,0.041v1.116c-0.121-0.026-0.242-0.041-0.404-0.041
					c-0.833,0-1.426,0.632-1.588,1.521c-0.026,0.162-0.054,0.35-0.054,0.552v3.47h-1.17V289.66z"/>
				<path class="st0" d="M167.218,285.8c0.013,0.404-0.283,0.726-0.753,0.726c-0.417,0-0.712-0.322-0.712-0.726
					c0-0.418,0.309-0.74,0.739-0.74C166.936,285.06,167.218,285.382,167.218,285.8z M165.9,294.14v-6.51h1.184v6.51H165.9z"/>
				<path class="st0" d="M174.269,290.83c0,2.408-1.668,3.458-3.243,3.458c-1.761,0-3.121-1.292-3.121-3.351
					c0-2.179,1.426-3.457,3.228-3.457C173.004,287.481,174.269,288.84,174.269,290.83z M169.103,290.899
					c0,1.425,0.82,2.501,1.977,2.501c1.13,0,1.978-1.062,1.978-2.529c0-1.103-0.552-2.503-1.951-2.503
					C169.708,288.368,169.103,289.66,169.103,290.899z"/>
				<path class="st0" d="M33.777,308.908v0.874h-3.323v-0.874H33.777z"/>
				<path class="st0" d="M44.354,309.003c-0.067-1.264-0.149-2.785-0.134-3.916H44.18c-0.31,1.063-0.686,2.194-1.144,3.444
					l-1.601,4.4h-0.887l-1.467-4.318c-0.43-1.278-0.794-2.449-1.049-3.525h-0.028c-0.026,1.13-0.093,2.651-0.175,4.009l-0.242,3.888
					h-1.116l0.632-9.067h1.493l1.547,4.385c0.376,1.117,0.686,2.112,0.915,3.055h0.039c0.229-0.915,0.552-1.911,0.956-3.055
					l1.614-4.385h1.493l0.565,9.067h-1.144L44.354,309.003z"/>
				<path class="st0" d="M52.794,309.674c0,2.408-1.668,3.458-3.243,3.458c-1.761,0-3.121-1.292-3.121-3.351
					c0-2.179,1.426-3.457,3.228-3.457C51.53,306.325,52.794,307.684,52.794,309.674z M47.629,309.743
					c0,1.425,0.82,2.501,1.977,2.501c1.13,0,1.978-1.062,1.978-2.529c0-1.103-0.552-2.503-1.951-2.503
					C48.233,307.212,47.629,308.505,47.629,309.743z"/>
				<path class="st0" d="M53.619,308.235c0-0.672-0.013-1.224-0.054-1.761h1.049l0.068,1.075h0.026
					c0.323-0.618,1.077-1.224,2.153-1.224c0.9,0,2.3,0.538,2.3,2.771v3.888h-1.184v-3.753c0-1.05-0.39-1.924-1.506-1.924
					c-0.781,0-1.385,0.552-1.588,1.211c-0.054,0.149-0.08,0.35-0.08,0.552v3.914h-1.184V308.235z"/>
				<path class="st0" d="M61.734,304.644c0.013,0.404-0.283,0.726-0.753,0.726c-0.417,0-0.712-0.322-0.712-0.726
					c0-0.418,0.309-0.74,0.739-0.74C61.452,303.904,61.734,304.226,61.734,304.644z M60.416,312.984v-6.511H61.6v6.511H60.416z"/>
				<path class="st0" d="M64.318,304.603v1.87h1.694v0.9h-1.694v3.511c0,0.807,0.229,1.264,0.887,1.264
					c0.31,0,0.539-0.039,0.686-0.08l0.054,0.889c-0.229,0.093-0.592,0.16-1.049,0.16c-0.552,0-0.995-0.175-1.278-0.497
					c-0.337-0.35-0.457-0.929-0.457-1.696v-3.552h-1.01v-0.9h1.01v-1.562L64.318,304.603z"/>
				<path class="st0" d="M72.486,309.674c0,2.408-1.668,3.458-3.243,3.458c-1.761,0-3.121-1.292-3.121-3.351
					c0-2.179,1.426-3.457,3.228-3.457C71.222,306.325,72.486,307.684,72.486,309.674z M67.321,309.743
					c0,1.425,0.82,2.501,1.977,2.501c1.13,0,1.978-1.062,1.978-2.529c0-1.103-0.552-2.503-1.951-2.503
					C67.925,307.212,67.321,308.505,67.321,309.743z"/>
				<path class="st0" d="M73.311,308.505c0-0.766-0.013-1.426-0.054-2.031h1.036l0.041,1.278h0.054
					c0.296-0.874,1.008-1.426,1.802-1.426c0.135,0,0.229,0.013,0.337,0.041v1.116c-0.121-0.026-0.242-0.041-0.404-0.041
					c-0.833,0-1.426,0.632-1.588,1.521c-0.026,0.162-0.054,0.35-0.054,0.552v3.47h-1.17V308.505z"/>
				<path class="st0" d="M77.564,309.944c0.026,1.601,1.049,2.26,2.232,2.26c0.848,0,1.359-0.147,1.803-0.335l0.201,0.846
					c-0.417,0.189-1.129,0.404-2.165,0.404c-2.005,0-3.202-1.318-3.202-3.282s1.157-3.511,3.053-3.511
					c2.125,0,2.691,1.87,2.691,3.067c0,0.243-0.026,0.431-0.041,0.552H77.564z M81.034,309.096c0.013-0.753-0.309-1.923-1.642-1.923
					c-1.196,0-1.722,1.103-1.815,1.923H81.034z"/>
				<path class="st0" d="M88.867,309.674c0,2.408-1.668,3.458-3.243,3.458c-1.761,0-3.121-1.292-3.121-3.351
					c0-2.179,1.426-3.457,3.228-3.457C87.603,306.325,88.867,307.684,88.867,309.674z M83.701,309.743
					c0,1.425,0.82,2.501,1.977,2.501c1.13,0,1.978-1.062,1.978-2.529c0-1.103-0.552-2.503-1.951-2.503
					C84.306,307.212,83.701,308.505,83.701,309.743z"/>
				<path class="st0" d="M97.495,303.433v7.87c0,0.578,0.013,1.237,0.054,1.681h-1.062l-0.054-1.13h-0.028
					c-0.363,0.727-1.157,1.279-2.22,1.279c-1.573,0-2.784-1.333-2.784-3.31c-0.013-2.166,1.332-3.498,2.919-3.498
					c0.995,0,1.668,0.471,1.964,0.995h0.026v-3.887H97.495z M96.311,309.124c0-0.149-0.013-0.35-0.053-0.498
					c-0.176-0.753-0.822-1.372-1.709-1.372c-1.225,0-1.951,1.077-1.951,2.516c0,1.318,0.645,2.408,1.923,2.408
					c0.794,0,1.521-0.524,1.736-1.413c0.039-0.16,0.053-0.322,0.053-0.511V309.124z"/>
				<path class="st0" d="M99.45,309.944c0.026,1.601,1.049,2.26,2.232,2.26c0.848,0,1.359-0.147,1.803-0.335l0.201,0.846
					c-0.417,0.189-1.129,0.404-2.165,0.404c-2.005,0-3.202-1.318-3.202-3.282s1.157-3.511,3.053-3.511
					c2.125,0,2.691,1.87,2.691,3.067c0,0.243-0.026,0.431-0.041,0.552H99.45z M102.92,309.096c0.013-0.753-0.309-1.923-1.642-1.923
					c-1.196,0-1.722,1.103-1.815,1.923H102.92z"/>
				<path class="st0" d="M111.682,312.742c-0.309,0.162-0.995,0.376-1.87,0.376c-1.964,0-3.241-1.332-3.241-3.323
					c0-2.003,1.372-3.457,3.498-3.457c0.699,0,1.318,0.175,1.64,0.336l-0.268,0.915c-0.283-0.162-0.727-0.309-1.372-0.309
					c-1.493,0-2.3,1.103-2.3,2.462c0,1.506,0.969,2.434,2.26,2.434c0.673,0,1.117-0.175,1.452-0.323L111.682,312.742z"/>
				<path class="st0" d="M118.21,309.674c0,2.408-1.668,3.458-3.243,3.458c-1.761,0-3.121-1.292-3.121-3.351
					c0-2.179,1.426-3.457,3.228-3.457C116.945,306.325,118.21,307.684,118.21,309.674z M113.044,309.743
					c0,1.425,0.82,2.501,1.977,2.501c1.13,0,1.978-1.062,1.978-2.529c0-1.103-0.552-2.503-1.951-2.503
					C113.649,307.212,113.044,308.505,113.044,309.743z"/>
				<path class="st0" d="M119.034,308.235c0-0.672-0.013-1.224-0.054-1.761h1.036l0.054,1.049h0.041
					c0.363-0.619,0.969-1.197,2.044-1.197c0.889,0,1.562,0.538,1.844,1.305h0.026c0.202-0.364,0.457-0.647,0.727-0.848
					c0.39-0.296,0.82-0.457,1.439-0.457c0.861,0,2.139,0.565,2.139,2.825v3.834h-1.157v-3.686c0-1.251-0.457-2.005-1.413-2.005
					c-0.672,0-1.197,0.498-1.399,1.077c-0.054,0.16-0.095,0.376-0.095,0.592v4.022h-1.157v-3.901c0-1.036-0.457-1.789-1.359-1.789
					c-0.739,0-1.278,0.592-1.466,1.183c-0.067,0.176-0.095,0.377-0.095,0.58v3.928h-1.157V308.235z"/>
				<path class="st0" d="M135.035,311.208c0,0.673,0.013,1.265,0.054,1.776h-1.049l-0.067-1.063h-0.028
					c-0.309,0.526-0.995,1.212-2.152,1.212c-1.023,0-2.248-0.565-2.248-2.852v-3.807h1.184v3.604c0,1.238,0.377,2.072,1.452,2.072
					c0.794,0,1.346-0.551,1.562-1.075c0.067-0.175,0.106-0.39,0.106-0.606v-3.995h1.184V311.208z"/>
				<path class="st0" d="M136.33,308.235c0-0.672-0.013-1.224-0.054-1.761h1.049l0.068,1.075h0.026
					c0.323-0.618,1.077-1.224,2.153-1.224c0.9,0,2.3,0.538,2.3,2.771v3.888h-1.184v-3.753c0-1.05-0.39-1.924-1.506-1.924
					c-0.781,0-1.385,0.552-1.588,1.211c-0.054,0.149-0.08,0.35-0.08,0.552v3.914h-1.184V308.235z"/>
				<path class="st0" d="M144.445,304.644c0.013,0.404-0.283,0.726-0.753,0.726c-0.417,0-0.712-0.322-0.712-0.726
					c0-0.418,0.309-0.74,0.739-0.74C144.163,303.904,144.445,304.226,144.445,304.644z M143.127,312.984v-6.511h1.184v6.511H143.127
					z"/>
				<path class="st0" d="M150.245,312.742c-0.309,0.162-0.995,0.376-1.87,0.376c-1.964,0-3.241-1.332-3.241-3.323
					c0-2.003,1.372-3.457,3.498-3.457c0.699,0,1.318,0.175,1.64,0.336l-0.268,0.915c-0.283-0.162-0.727-0.309-1.372-0.309
					c-1.493,0-2.3,1.103-2.3,2.462c0,1.506,0.969,2.434,2.26,2.434c0.673,0,1.117-0.175,1.452-0.323L150.245,312.742z"/>
				<path class="st0" d="M154.565,312.984l-0.095-0.82h-0.039c-0.364,0.511-1.063,0.969-1.991,0.969
					c-1.318,0-1.991-0.929-1.991-1.87c0-1.573,1.4-2.434,3.914-2.421v-0.135c0-0.538-0.147-1.506-1.479-1.506
					c-0.606,0-1.238,0.189-1.696,0.485l-0.269-0.781c0.539-0.35,1.318-0.578,2.14-0.578c1.99,0,2.475,1.359,2.475,2.663v2.436
					c0,0.565,0.026,1.116,0.108,1.56H154.565z M154.39,309.661c-1.292-0.026-2.758,0.202-2.758,1.467
					c0,0.766,0.511,1.129,1.116,1.129c0.848,0,1.385-0.538,1.575-1.09c0.039-0.121,0.067-0.255,0.067-0.376V309.661z"/>
				<path class="st0" d="M161.416,312.742c-0.309,0.162-0.995,0.376-1.87,0.376c-1.964,0-3.241-1.332-3.241-3.323
					c0-2.003,1.372-3.457,3.498-3.457c0.699,0,1.318,0.175,1.64,0.336l-0.268,0.915c-0.283-0.162-0.727-0.309-1.372-0.309
					c-1.493,0-2.3,1.103-2.3,2.462c0,1.506,0.969,2.434,2.26,2.434c0.673,0,1.117-0.175,1.452-0.323L161.416,312.742z"/>
				<path class="st0" d="M163.451,304.644c0.013,0.404-0.283,0.726-0.753,0.726c-0.417,0-0.712-0.322-0.712-0.726
					c0-0.418,0.309-0.74,0.739-0.74C163.168,303.904,163.451,304.226,163.451,304.644z M162.132,312.984v-6.511h1.184v6.511H162.132
					z"/>
				<path class="st0" d="M170.502,309.674c0,2.408-1.668,3.458-3.243,3.458c-1.761,0-3.121-1.292-3.121-3.351
					c0-2.179,1.426-3.457,3.228-3.457C169.237,306.325,170.502,307.684,170.502,309.674z M165.336,309.743
					c0,1.425,0.82,2.501,1.977,2.501c1.13,0,1.978-1.062,1.978-2.529c0-1.103-0.552-2.503-1.951-2.503
					C165.94,307.212,165.336,308.505,165.336,309.743z M169.089,303.662l-1.64,1.923H166.6l1.183-1.923H169.089z"/>
				<path class="st0" d="M171.326,308.235c0-0.672-0.013-1.224-0.054-1.761h1.049l0.068,1.075h0.026
					c0.323-0.618,1.077-1.224,2.153-1.224c0.9,0,2.3,0.538,2.3,2.771v3.888h-1.184v-3.753c0-1.05-0.39-1.924-1.506-1.924
					c-0.781,0-1.385,0.552-1.588,1.211c-0.054,0.149-0.08,0.35-0.08,0.552v3.914h-1.184V308.235z"/>
				<path class="st0" d="M33.777,327.752v0.874h-3.323v-0.874H33.777z"/>
				<path class="st0" d="M36.713,322.882c0.712-0.108,1.56-0.188,2.488-0.188c1.681,0,2.879,0.39,3.673,1.13
					c0.807,0.739,1.278,1.789,1.278,3.255c0,1.48-0.457,2.691-1.304,3.525c-0.848,0.847-2.246,1.304-4.009,1.304
					c-0.835,0-1.534-0.039-2.125-0.106V322.882z M37.883,330.9c0.296,0.054,0.727,0.067,1.184,0.067
					c2.501,0,3.861-1.399,3.861-3.847c0.013-2.139-1.197-3.498-3.673-3.498c-0.605,0-1.062,0.054-1.372,0.121V330.9z"/>
				<path class="st0" d="M46.283,323.488c0.013,0.404-0.283,0.726-0.753,0.726c-0.417,0-0.712-0.322-0.712-0.726
					c0-0.418,0.309-0.74,0.739-0.74C46,322.748,46.283,323.07,46.283,323.488z M44.964,331.828v-6.511h1.184v6.511H44.964z"/>
				<path class="st0" d="M47.279,330.618c0.35,0.229,0.969,0.471,1.56,0.471c0.861,0,1.266-0.43,1.266-0.969
					c0-0.565-0.337-0.874-1.212-1.197c-1.17-0.417-1.722-1.062-1.722-1.843c0-1.049,0.848-1.91,2.248-1.91
					c0.659,0,1.237,0.188,1.6,0.404l-0.296,0.861c-0.255-0.162-0.726-0.377-1.332-0.377c-0.699,0-1.09,0.404-1.09,0.889
					c0,0.538,0.39,0.781,1.238,1.103c1.129,0.431,1.707,0.995,1.707,1.964c0,1.144-0.887,1.951-2.434,1.951
					c-0.712,0-1.372-0.175-1.83-0.443L47.279,330.618z"/>
				<path class="st0" d="M52.758,328.788c0.026,1.601,1.049,2.26,2.232,2.26c0.848,0,1.359-0.147,1.803-0.335l0.201,0.847
					c-0.417,0.189-1.129,0.404-2.165,0.404c-2.005,0-3.202-1.318-3.202-3.282s1.157-3.511,3.053-3.511
					c2.125,0,2.691,1.87,2.691,3.067c0,0.243-0.026,0.431-0.041,0.552H52.758z M56.228,327.94c0.013-0.753-0.309-1.923-1.642-1.923
					c-1.196,0-1.722,1.103-1.815,1.923H56.228z"/>
				<path class="st0" d="M58.168,327.079c0-0.672-0.013-1.224-0.054-1.761h1.049l0.068,1.075h0.026
					c0.323-0.618,1.077-1.224,2.153-1.224c0.9,0,2.3,0.538,2.3,2.771v3.888h-1.184v-3.753c0-1.05-0.39-1.924-1.506-1.924
					c-0.781,0-1.385,0.552-1.588,1.211c-0.054,0.149-0.08,0.35-0.08,0.552v3.914h-1.184V327.079z M59.271,324.201
					c-0.026-0.874,0.336-1.399,0.915-1.399c0.296,0,0.524,0.121,0.835,0.296c0.216,0.121,0.404,0.229,0.565,0.229
					c0.214,0,0.35-0.121,0.376-0.578h0.632c0.013,0.9-0.296,1.358-0.928,1.358c-0.283,0-0.538-0.121-0.82-0.268
					c-0.269-0.162-0.418-0.242-0.578-0.242c-0.216,0-0.323,0.229-0.35,0.605H59.271z"/>
				<path class="st0" d="M70.858,328.518c0,2.408-1.668,3.458-3.243,3.458c-1.761,0-3.121-1.292-3.121-3.351
					c0-2.179,1.426-3.457,3.228-3.457C69.593,325.169,70.858,326.528,70.858,328.518z M65.692,328.587
					c0,1.425,0.82,2.501,1.977,2.501c1.13,0,1.978-1.062,1.978-2.529c0-1.103-0.552-2.503-1.951-2.503
					C66.297,326.057,65.692,327.349,65.692,328.587z"/>
				<path class="st0" d="M79.486,322.277v7.87c0,0.578,0.013,1.237,0.054,1.681h-1.063l-0.053-1.13h-0.028
					c-0.363,0.727-1.157,1.279-2.22,1.279c-1.573,0-2.784-1.333-2.784-3.31c-0.013-2.166,1.332-3.498,2.919-3.498
					c0.995,0,1.668,0.471,1.964,0.995h0.026v-3.887H79.486z M78.302,327.968c0-0.149-0.013-0.35-0.053-0.498
					c-0.176-0.753-0.822-1.372-1.709-1.372c-1.225,0-1.951,1.077-1.951,2.516c0,1.318,0.645,2.408,1.923,2.408
					c0.794,0,1.521-0.524,1.736-1.413c0.039-0.16,0.053-0.322,0.053-0.511V327.968z"/>
				<path class="st0" d="M81.44,328.788c0.026,1.601,1.049,2.26,2.233,2.26c0.847,0,1.358-0.147,1.802-0.335l0.201,0.847
					c-0.417,0.189-1.129,0.404-2.165,0.404c-2.005,0-3.202-1.318-3.202-3.282s1.157-3.511,3.053-3.511
					c2.125,0,2.691,1.87,2.691,3.067c0,0.243-0.026,0.431-0.041,0.552H81.44z M84.911,327.94c0.013-0.753-0.309-1.923-1.642-1.923
					c-1.196,0-1.722,1.103-1.815,1.923H84.911z"/>
				<path class="st0" d="M89.031,322.277h1.184v9.551h-1.184V322.277z"/>
				<path class="st0" d="M97.428,328.518c0,2.408-1.668,3.458-3.243,3.458c-1.761,0-3.121-1.292-3.121-3.351
					c0-2.179,1.426-3.457,3.228-3.457C96.164,325.169,97.428,326.528,97.428,328.518z M92.262,328.587
					c0,1.425,0.82,2.501,1.977,2.501c1.13,0,1.978-1.062,1.978-2.529c0-1.103-0.552-2.503-1.951-2.503
					C92.867,326.057,92.262,327.349,92.262,328.587z"/>
				<path class="st0" d="M98.091,330.618c0.35,0.229,0.969,0.471,1.56,0.471c0.861,0,1.266-0.43,1.266-0.969
					c0-0.565-0.337-0.874-1.212-1.197c-1.17-0.417-1.722-1.062-1.722-1.843c0-1.049,0.848-1.91,2.248-1.91
					c0.659,0,1.237,0.188,1.6,0.404l-0.296,0.861c-0.255-0.162-0.726-0.377-1.332-0.377c-0.699,0-1.09,0.404-1.09,0.889
					c0,0.538,0.39,0.781,1.238,1.103c1.129,0.431,1.707,0.995,1.707,1.964c0,1.144-0.887,1.951-2.434,1.951
					c-0.712,0-1.372-0.175-1.83-0.443L98.091,330.618z"/>
				<path class="st0" d="M105.131,322.869c0.565-0.095,1.305-0.175,2.246-0.175c1.157,0,2.005,0.269,2.542,0.753
					c0.498,0.43,0.794,1.09,0.794,1.897c0,0.82-0.242,1.467-0.699,1.938c-0.619,0.659-1.627,0.995-2.771,0.995
					c-0.35,0-0.673-0.013-0.942-0.08v3.632h-1.17V322.869z M106.301,327.241c0.256,0.067,0.578,0.095,0.969,0.095
					c1.413,0,2.274-0.686,2.274-1.938c0-1.197-0.848-1.776-2.14-1.776c-0.51,0-0.9,0.041-1.103,0.095V327.241z"/>
				<path class="st0" d="M117.135,328.518c0,2.408-1.668,3.458-3.243,3.458c-1.761,0-3.121-1.292-3.121-3.351
					c0-2.179,1.426-3.457,3.228-3.457C115.87,325.169,117.135,326.528,117.135,328.518z M111.969,328.587
					c0,1.425,0.82,2.501,1.977,2.501c1.13,0,1.978-1.062,1.978-2.529c0-1.103-0.552-2.503-1.951-2.503
					C112.573,326.057,111.969,327.349,111.969,328.587z"/>
				<path class="st0" d="M117.797,330.618c0.35,0.229,0.969,0.471,1.56,0.471c0.861,0,1.266-0.43,1.266-0.969
					c0-0.565-0.337-0.874-1.212-1.197c-1.17-0.417-1.722-1.062-1.722-1.843c0-1.049,0.848-1.91,2.248-1.91
					c0.659,0,1.237,0.188,1.6,0.404l-0.296,0.861c-0.255-0.162-0.726-0.377-1.332-0.377c-0.699,0-1.09,0.404-1.09,0.889
					c0,0.538,0.39,0.781,1.238,1.103c1.129,0.431,1.707,0.995,1.707,1.964c0,1.144-0.887,1.951-2.434,1.951
					c-0.712,0-1.372-0.175-1.83-0.443L117.797,330.618z"/>
				<path class="st0" d="M124.042,323.447v1.87h1.694v0.9h-1.694v3.511c0,0.807,0.229,1.265,0.887,1.265
					c0.31,0,0.539-0.039,0.686-0.08l0.054,0.889c-0.229,0.093-0.592,0.16-1.049,0.16c-0.552,0-0.995-0.175-1.278-0.497
					c-0.337-0.35-0.457-0.929-0.457-1.696v-3.552h-1.01v-0.9h1.01v-1.562L124.042,323.447z"/>
				<path class="st0" d="M131.148,322.492c-0.982,1.318-1.696,3.068-1.696,5.502c0,2.395,0.74,4.117,1.696,5.462h-0.928
					c-0.848-1.116-1.763-2.838-1.763-5.462c0.013-2.65,0.915-4.372,1.763-5.502H131.148z"/>
				<path class="st0" d="M133.92,324.187h-0.026l-1.521,0.82l-0.229-0.902l1.911-1.021h1.008v8.744h-1.144V324.187z"/>
				<path class="st0" d="M137.584,331.828v-0.727l0.928-0.9c2.233-2.125,3.241-3.256,3.255-4.574c0-0.889-0.43-1.709-1.735-1.709
					c-0.794,0-1.452,0.404-1.856,0.74l-0.377-0.833c0.606-0.511,1.467-0.889,2.475-0.889c1.884,0,2.678,1.292,2.678,2.542
					c0,1.614-1.17,2.919-3.013,4.695l-0.701,0.645v0.028h3.929v0.982H137.584z"/>
				<path class="st0" d="M146.372,327.443c0-0.835-0.026-1.508-0.054-2.125h1.063l0.054,1.116h0.026
					c0.485-0.794,1.251-1.264,2.313-1.264c1.575,0,2.758,1.332,2.758,3.31c0,2.34-1.425,3.498-2.959,3.498
					c-0.861,0-1.614-0.377-2.005-1.023h-0.026v3.537h-1.171V327.443z M147.543,329.178c0,0.175,0.026,0.337,0.053,0.484
					c0.216,0.822,0.929,1.385,1.776,1.385c1.251,0,1.978-1.021,1.978-2.515c0-1.305-0.686-2.423-1.938-2.423
					c-0.807,0-1.56,0.578-1.789,1.467c-0.041,0.149-0.08,0.323-0.08,0.484V329.178z"/>
				<path class="st0" d="M159.25,328.518c0,2.408-1.668,3.458-3.243,3.458c-1.761,0-3.121-1.292-3.121-3.351
					c0-2.179,1.426-3.457,3.228-3.457C157.985,325.169,159.25,326.528,159.25,328.518z M154.084,328.587
					c0,1.425,0.82,2.501,1.977,2.501c1.13,0,1.978-1.062,1.978-2.529c0-1.103-0.552-2.503-1.951-2.503
					C154.689,326.057,154.084,327.349,154.084,328.587z"/>
				<path class="st0" d="M160.074,327.349c0-0.766-0.013-1.426-0.054-2.031h1.036l0.041,1.278h0.054
					c0.296-0.874,1.008-1.426,1.802-1.426c0.135,0,0.229,0.013,0.337,0.041v1.116c-0.121-0.026-0.242-0.041-0.404-0.041
					c-0.833,0-1.426,0.632-1.588,1.521c-0.026,0.162-0.053,0.35-0.053,0.552v3.47h-1.171V327.349z"/>
				<path class="st0" d="M165.983,327.079c0-0.672-0.013-1.224-0.054-1.761h1.036l0.054,1.049h0.041
					c0.363-0.619,0.969-1.197,2.044-1.197c0.889,0,1.562,0.538,1.844,1.305h0.026c0.202-0.364,0.457-0.647,0.727-0.848
					c0.39-0.296,0.82-0.457,1.439-0.457c0.861,0,2.139,0.565,2.139,2.825v3.834h-1.157v-3.686c0-1.251-0.457-2.005-1.413-2.005
					c-0.672,0-1.197,0.498-1.399,1.077c-0.054,0.16-0.095,0.376-0.095,0.592v4.022h-1.157v-3.901c0-1.036-0.457-1.789-1.359-1.789
					c-0.739,0-1.278,0.592-1.466,1.183c-0.067,0.176-0.095,0.377-0.095,0.58v3.928h-1.157V327.079z"/>
				<path class="st0" d="M177.195,328.788c0.026,1.601,1.049,2.26,2.232,2.26c0.848,0,1.359-0.147,1.803-0.335l0.201,0.847
					c-0.417,0.189-1.129,0.404-2.165,0.404c-2.005,0-3.202-1.318-3.202-3.282s1.157-3.511,3.053-3.511
					c2.125,0,2.691,1.87,2.691,3.067c0,0.243-0.026,0.431-0.041,0.552H177.195z M180.665,327.94
					c0.013-0.753-0.309-1.923-1.642-1.923c-1.196,0-1.722,1.103-1.815,1.923H180.665z"/>
				<path class="st0" d="M182.443,330.618c0.35,0.229,0.969,0.471,1.56,0.471c0.861,0,1.266-0.43,1.266-0.969
					c0-0.565-0.337-0.874-1.212-1.197c-1.17-0.417-1.722-1.062-1.722-1.843c0-1.049,0.848-1.91,2.248-1.91
					c0.659,0,1.237,0.188,1.6,0.404l-0.296,0.861c-0.255-0.162-0.726-0.377-1.332-0.377c-0.699,0-1.09,0.404-1.09,0.889
					c0,0.538,0.39,0.781,1.238,1.103c1.129,0.431,1.707,0.995,1.707,1.964c0,1.144-0.887,1.951-2.434,1.951
					c-0.712,0-1.372-0.175-1.83-0.443L182.443,330.618z"/>
				<path class="st0" d="M186.55,333.456c0.954-1.332,1.694-3.08,1.694-5.501c0-2.408-0.726-4.13-1.694-5.463h0.915
					c0.861,1.104,1.761,2.826,1.761,5.476c0,2.637-0.9,4.344-1.761,5.488H186.55z"/>
				<path class="st0" d="M33.777,346.596v0.874h-3.323v-0.874H33.777z"/>
				<path class="st0" d="M36.713,341.726c0.592-0.121,1.439-0.188,2.246-0.188c1.251,0,2.058,0.229,2.624,0.74
					c0.457,0.404,0.712,1.023,0.712,1.722c0,1.197-0.753,1.99-1.709,2.313v0.041c0.701,0.242,1.117,0.887,1.333,1.83
					c0.296,1.264,0.51,2.139,0.699,2.488h-1.211c-0.149-0.255-0.35-1.036-0.606-2.166c-0.269-1.251-0.753-1.722-1.817-1.761h-1.103
					v3.928h-1.17V341.726z M37.883,345.856h1.197c1.251,0,2.045-0.686,2.045-1.722c0-1.17-0.848-1.681-2.086-1.694
					c-0.564,0-0.969,0.053-1.157,0.106V345.856z"/>
				<path class="st0" d="M43.955,347.632c0.026,1.601,1.049,2.26,2.233,2.26c0.847,0,1.358-0.147,1.802-0.335l0.201,0.847
					c-0.417,0.189-1.129,0.404-2.165,0.404c-2.005,0-3.202-1.318-3.202-3.282c0-1.964,1.157-3.511,3.053-3.511
					c2.125,0,2.691,1.87,2.691,3.067c0,0.243-0.026,0.431-0.041,0.552H43.955z M47.425,346.784c0.013-0.753-0.309-1.923-1.642-1.923
					c-1.196,0-1.722,1.103-1.815,1.923H47.425z"/>
				<path class="st0" d="M49.203,349.462c0.35,0.229,0.969,0.471,1.56,0.471c0.861,0,1.266-0.43,1.266-0.969
					c0-0.565-0.336-0.874-1.212-1.197c-1.17-0.417-1.722-1.062-1.722-1.843c0-1.049,0.848-1.91,2.248-1.91
					c0.659,0,1.237,0.188,1.6,0.404l-0.296,0.861c-0.255-0.162-0.726-0.377-1.332-0.377c-0.699,0-1.09,0.404-1.09,0.889
					c0,0.538,0.39,0.781,1.238,1.103c1.129,0.431,1.707,0.995,1.707,1.964c0,1.144-0.887,1.951-2.434,1.951
					c-0.712,0-1.372-0.175-1.83-0.443L49.203,349.462z"/>
				<path class="st0" d="M59.471,348.897c0,0.673,0.013,1.264,0.054,1.776h-1.049l-0.067-1.063h-0.028
					c-0.309,0.526-0.995,1.212-2.152,1.212c-1.023,0-2.248-0.565-2.248-2.852v-3.807h1.184v3.604c0,1.238,0.377,2.072,1.452,2.072
					c0.794,0,1.346-0.551,1.562-1.075c0.067-0.175,0.106-0.39,0.106-0.606v-3.995h1.184V348.897z"/>
				<path class="st0" d="M60.765,345.923c0-0.672-0.013-1.224-0.054-1.761h1.036l0.054,1.049h0.041
					c0.363-0.619,0.969-1.197,2.044-1.197c0.889,0,1.562,0.538,1.844,1.305h0.026c0.202-0.364,0.457-0.647,0.727-0.848
					c0.39-0.296,0.82-0.457,1.439-0.457c0.861,0,2.139,0.565,2.139,2.825v3.834h-1.157v-3.686c0-1.251-0.457-2.005-1.413-2.005
					c-0.672,0-1.197,0.498-1.399,1.077c-0.054,0.16-0.095,0.376-0.095,0.591v4.022h-1.157v-3.901c0-1.036-0.457-1.789-1.359-1.789
					c-0.739,0-1.278,0.591-1.466,1.183c-0.067,0.176-0.095,0.377-0.095,0.58v3.928h-1.157V345.923z"/>
				<path class="st0" d="M71.978,347.632c0.026,1.601,1.049,2.26,2.232,2.26c0.848,0,1.359-0.147,1.803-0.335l0.201,0.847
					c-0.417,0.189-1.129,0.404-2.165,0.404c-2.005,0-3.202-1.318-3.202-3.282c0-1.964,1.157-3.511,3.053-3.511
					c2.125,0,2.691,1.87,2.691,3.067c0,0.243-0.026,0.431-0.041,0.552H71.978z M75.448,346.784c0.013-0.753-0.309-1.923-1.642-1.923
					c-1.196,0-1.722,1.103-1.815,1.923H75.448z"/>
				<path class="st0" d="M77.388,345.923c0-0.672-0.013-1.224-0.054-1.761h1.049l0.068,1.075h0.026
					c0.323-0.618,1.077-1.224,2.153-1.224c0.9,0,2.3,0.538,2.3,2.771v3.888h-1.184v-3.753c0-1.05-0.39-1.924-1.506-1.924
					c-0.781,0-1.385,0.552-1.588,1.211c-0.054,0.149-0.08,0.35-0.08,0.552v3.914h-1.184V345.923z"/>
				<path class="st0" d="M93.886,352.004c-1.224-0.322-2.421-0.686-3.47-1.049c-0.189-0.067-0.377-0.134-0.552-0.134
					c-2.152-0.082-3.996-1.668-3.996-4.587c0-2.906,1.776-4.777,4.225-4.777c2.462,0,4.063,1.911,4.063,4.587
					c0,2.328-1.077,3.821-2.583,4.346v0.054c0.902,0.229,1.884,0.444,2.65,0.578L93.886,352.004z M92.917,346.098
					c0-1.815-0.941-3.686-2.866-3.686c-1.977,0-2.946,1.83-2.933,3.794c-0.013,1.924,1.05,3.659,2.879,3.659
					C91.868,349.865,92.917,348.17,92.917,346.098z"/>
				<path class="st0" d="M100.455,348.897c0,0.673,0.013,1.264,0.054,1.776H99.46l-0.067-1.063h-0.028
					c-0.309,0.526-0.995,1.212-2.152,1.212c-1.023,0-2.248-0.565-2.248-2.852v-3.807h1.184v3.604c0,1.238,0.377,2.072,1.452,2.072
					c0.794,0,1.346-0.551,1.562-1.075c0.067-0.175,0.106-0.39,0.106-0.606v-3.995h1.184V348.897z"/>
				<path class="st0" d="M103.069,342.332c0.013,0.404-0.283,0.726-0.753,0.726c-0.417,0-0.712-0.322-0.712-0.726
					c0-0.418,0.309-0.74,0.739-0.74C102.786,341.592,103.069,341.914,103.069,342.332z M101.75,350.672v-6.51h1.184v6.51H101.75z"/>
				<path class="st0" d="M104.227,345.923c0-0.672-0.013-1.224-0.054-1.761h1.049l0.068,1.075h0.026
					c0.323-0.618,1.077-1.224,2.153-1.224c0.9,0,2.3,0.538,2.3,2.771v3.888h-1.184v-3.753c0-1.05-0.39-1.924-1.506-1.924
					c-0.781,0-1.385,0.552-1.588,1.211c-0.054,0.149-0.08,0.35-0.08,0.552v3.914h-1.184V345.923z"/>
				<path class="st0" d="M115.665,350.431c-0.309,0.162-0.995,0.376-1.87,0.376c-1.964,0-3.241-1.332-3.241-3.323
					c0-2.003,1.372-3.457,3.498-3.457c0.699,0,1.318,0.175,1.64,0.337l-0.268,0.915c-0.283-0.162-0.727-0.309-1.372-0.309
					c-1.493,0-2.3,1.103-2.3,2.462c0,1.506,0.969,2.434,2.26,2.434c0.673,0,1.117-0.175,1.452-0.323L115.665,350.431z"/>
				<path class="st0" d="M116.96,347.632c0.026,1.601,1.049,2.26,2.233,2.26c0.847,0,1.358-0.147,1.802-0.335l0.201,0.847
					c-0.417,0.189-1.129,0.404-2.165,0.404c-2.005,0-3.202-1.318-3.202-3.282c0-1.964,1.157-3.511,3.053-3.511
					c2.125,0,2.691,1.87,2.691,3.067c0,0.243-0.026,0.431-0.041,0.552H116.96z M120.43,346.784c0.013-0.753-0.309-1.923-1.642-1.923
					c-1.196,0-1.722,1.103-1.815,1.923H120.43z"/>
				<path class="st0" d="M122.37,345.923c0-0.672-0.013-1.224-0.054-1.761h1.049l0.068,1.075h0.026
					c0.323-0.618,1.077-1.224,2.153-1.224c0.9,0,2.3,0.538,2.3,2.771v3.888h-1.184v-3.753c0-1.05-0.39-1.924-1.506-1.924
					c-0.781,0-1.385,0.552-1.588,1.211c-0.054,0.149-0.08,0.35-0.08,0.552v3.914h-1.184V345.923z"/>
				<path class="st0" d="M132.773,350.672l-0.095-0.82h-0.039c-0.364,0.511-1.063,0.969-1.991,0.969
					c-1.318,0-1.991-0.929-1.991-1.87c0-1.573,1.4-2.434,3.914-2.421v-0.135c0-0.538-0.147-1.506-1.479-1.506
					c-0.606,0-1.238,0.189-1.696,0.485l-0.269-0.781c0.539-0.35,1.318-0.578,2.14-0.578c1.99,0,2.475,1.359,2.475,2.663v2.436
					c0,0.565,0.026,1.116,0.108,1.56H132.773z M132.598,347.349c-1.292-0.026-2.758,0.202-2.758,1.467
					c0,0.766,0.511,1.129,1.116,1.129c0.848,0,1.385-0.538,1.575-1.09c0.039-0.121,0.067-0.255,0.067-0.376V347.349z"/>
				<path class="st0" d="M134.982,341.122h1.184v9.551h-1.184V341.122z"/>
				<path class="st0" d="M145.29,341.122v7.87c0,0.578,0.013,1.237,0.054,1.681h-1.063l-0.053-1.13h-0.028
					c-0.363,0.727-1.157,1.279-2.22,1.279c-1.573,0-2.784-1.333-2.784-3.31c-0.013-2.166,1.332-3.498,2.919-3.498
					c0.995,0,1.668,0.471,1.964,0.995h0.026v-3.887H145.29z M144.106,346.812c0-0.149-0.013-0.35-0.053-0.498
					c-0.176-0.753-0.822-1.372-1.709-1.372c-1.225,0-1.951,1.077-1.951,2.516c0,1.318,0.645,2.408,1.923,2.408
					c0.794,0,1.521-0.524,1.736-1.413c0.039-0.16,0.053-0.322,0.053-0.511V346.812z"/>
				<path class="st0" d="M147.245,347.632c0.026,1.601,1.049,2.26,2.233,2.26c0.847,0,1.358-0.147,1.802-0.335l0.201,0.847
					c-0.417,0.189-1.129,0.404-2.165,0.404c-2.005,0-3.202-1.318-3.202-3.282c0-1.964,1.157-3.511,3.053-3.511
					c2.125,0,2.691,1.87,2.691,3.067c0,0.243-0.026,0.431-0.041,0.552H147.245z M150.715,346.784
					c0.013-0.753-0.309-1.923-1.642-1.923c-1.196,0-1.722,1.103-1.815,1.923H150.715z"/>
				<path class="st0" d="M158.441,350.672l-0.095-0.82h-0.039c-0.364,0.511-1.063,0.969-1.991,0.969
					c-1.318,0-1.991-0.929-1.991-1.87c0-1.573,1.4-2.434,3.914-2.421v-0.135c0-0.538-0.147-1.506-1.479-1.506
					c-0.606,0-1.238,0.189-1.696,0.485l-0.269-0.781c0.539-0.35,1.318-0.578,2.14-0.578c1.99,0,2.475,1.359,2.475,2.663v2.436
					c0,0.565,0.026,1.116,0.108,1.56H158.441z M158.267,347.349c-1.292-0.026-2.758,0.202-2.758,1.467
					c0,0.766,0.511,1.129,1.116,1.129c0.848,0,1.385-0.538,1.575-1.09c0.039-0.121,0.067-0.255,0.067-0.376V347.349z"/>
				<path class="st0" d="M165.292,350.431c-0.309,0.162-0.995,0.376-1.87,0.376c-1.964,0-3.241-1.332-3.241-3.323
					c0-2.003,1.372-3.457,3.498-3.457c0.699,0,1.318,0.175,1.64,0.337l-0.268,0.915c-0.283-0.162-0.727-0.309-1.372-0.309
					c-1.493,0-2.3,1.103-2.3,2.462c0,1.506,0.969,2.434,2.26,2.434c0.673,0,1.117-0.175,1.452-0.323L165.292,350.431z"/>
				<path class="st0" d="M167.609,342.291v1.87h1.694v0.9h-1.694v3.511c0,0.807,0.229,1.265,0.887,1.265
					c0.31,0,0.539-0.039,0.686-0.08l0.054,0.889c-0.229,0.093-0.592,0.16-1.049,0.16c-0.552,0-0.995-0.175-1.278-0.497
					c-0.337-0.35-0.457-0.929-0.457-1.696v-3.552h-1.01v-0.9h1.01V342.6L167.609,342.291z"/>
				<path class="st0" d="M171.282,342.332c0.013,0.404-0.283,0.726-0.753,0.726c-0.417,0-0.712-0.322-0.712-0.726
					c0-0.418,0.309-0.74,0.739-0.74C171,341.592,171.282,341.914,171.282,342.332z M169.964,350.672v-6.51h1.184v6.51H169.964z"/>
				<path class="st0" d="M172.898,344.162l1.278,3.658c0.216,0.593,0.39,1.13,0.524,1.668h0.041
					c0.149-0.538,0.337-1.075,0.552-1.668l1.264-3.658h1.237l-2.555,6.51h-1.13l-2.475-6.51H172.898z"/>
				<path class="st0" d="M179.56,342.332c0.013,0.404-0.283,0.726-0.753,0.726c-0.417,0-0.712-0.322-0.712-0.726
					c0-0.418,0.309-0.74,0.739-0.74C179.277,341.592,179.56,341.914,179.56,342.332z M178.241,350.672v-6.51h1.184v6.51H178.241z"/>
				<path class="st0" d="M186.341,341.122v7.87c0,0.578,0.013,1.237,0.054,1.681h-1.063l-0.053-1.13h-0.028
					c-0.363,0.727-1.157,1.279-2.22,1.279c-1.573,0-2.784-1.333-2.784-3.31c-0.013-2.166,1.332-3.498,2.919-3.498
					c0.995,0,1.668,0.471,1.964,0.995h0.026v-3.887H186.341z M185.157,346.812c0-0.149-0.013-0.35-0.053-0.498
					c-0.176-0.753-0.822-1.372-1.709-1.372c-1.225,0-1.951,1.077-1.951,2.516c0,1.318,0.645,2.408,1.923,2.408
					c0.794,0,1.521-0.524,1.736-1.413c0.039-0.16,0.053-0.322,0.053-0.511V346.812z"/>
				<path class="st0" d="M191.241,350.672l-0.095-0.82h-0.039c-0.364,0.511-1.063,0.969-1.991,0.969
					c-1.318,0-1.991-0.929-1.991-1.87c0-1.573,1.4-2.434,3.914-2.421v-0.135c0-0.538-0.147-1.506-1.479-1.506
					c-0.606,0-1.238,0.189-1.696,0.485l-0.269-0.781c0.539-0.35,1.318-0.578,2.14-0.578c1.99,0,2.475,1.359,2.475,2.663v2.436
					c0,0.565,0.026,1.116,0.108,1.56H191.241z M191.066,347.349c-1.292-0.026-2.758,0.202-2.758,1.467
					c0,0.766,0.511,1.129,1.116,1.129c0.848,0,1.385-0.538,1.575-1.09c0.039-0.121,0.067-0.255,0.067-0.376V347.349z"/>
				<path class="st0" d="M199.074,341.122v7.87c0,0.578,0.013,1.237,0.054,1.681h-1.062l-0.054-1.13h-0.028
					c-0.363,0.727-1.157,1.279-2.22,1.279c-1.573,0-2.784-1.333-2.784-3.31c-0.013-2.166,1.332-3.498,2.919-3.498
					c0.995,0,1.668,0.471,1.964,0.995h0.026v-3.887H199.074z M197.89,346.812c0-0.149-0.013-0.35-0.053-0.498
					c-0.176-0.753-0.822-1.372-1.709-1.372c-1.225,0-1.951,1.077-1.951,2.516c0,1.318,0.645,2.408,1.923,2.408
					c0.794,0,1.521-0.524,1.736-1.413c0.039-0.16,0.053-0.322,0.053-0.511V346.812z"/>
				<path class="st0" d="M34.476,379.602l-1.278,1.682v0.026l2.031-0.268v0.914l-2.031-0.242v0.028l1.291,1.614l-0.847,0.484
					l-0.807-1.884h-0.028l-0.874,1.897l-0.768-0.484l1.279-1.642v-0.026l-1.991,0.255v-0.914l1.977,0.255v-0.028l-1.265-1.64
					l0.822-0.471l0.833,1.869h0.028l0.82-1.884L34.476,379.602z"/>
				<path class="st0" d="M35.987,388.361v-9.067h1.278l2.906,4.587c0.672,1.062,1.197,2.018,1.627,2.946l0.028-0.013
					c-0.108-1.211-0.135-2.313-0.135-3.727v-3.794h1.103v9.067H41.61l-2.879-4.601c-0.632-1.009-1.238-2.045-1.696-3.027
					l-0.041,0.013c0.068,1.144,0.095,2.233,0.095,3.741v3.874H35.987z"/>
				<path class="st0" d="M50.022,385.051c0,2.408-1.668,3.458-3.243,3.458c-1.761,0-3.121-1.292-3.121-3.351
					c0-2.179,1.426-3.457,3.228-3.457C48.758,381.701,50.022,383.061,50.022,385.051z M44.856,385.119
					c0,1.425,0.82,2.501,1.977,2.501c1.13,0,1.978-1.062,1.978-2.529c0-1.103-0.552-2.503-1.951-2.503
					C45.461,382.589,44.856,383.881,44.856,385.119z"/>
				<path class="st0" d="M54.346,380.02c0.013,0.404-0.283,0.726-0.753,0.726c-0.417,0-0.712-0.322-0.712-0.726
					c0-0.418,0.309-0.74,0.739-0.74C54.063,379.28,54.346,379.602,54.346,380.02z M53.027,388.361v-6.511h1.184v6.511H53.027z"/>
				<path class="st0" d="M55.504,383.611c0-0.672-0.013-1.224-0.054-1.761h1.049l0.068,1.075h0.026
					c0.323-0.618,1.077-1.224,2.153-1.224c0.9,0,2.3,0.538,2.3,2.771v3.888h-1.184v-3.753c0-1.05-0.39-1.924-1.506-1.924
					c-0.781,0-1.385,0.552-1.588,1.211c-0.054,0.149-0.08,0.35-0.08,0.552v3.914h-1.184V383.611z"/>
				<path class="st0" d="M66.942,388.119c-0.309,0.162-0.995,0.376-1.87,0.376c-1.964,0-3.241-1.332-3.241-3.323
					c0-2.003,1.372-3.457,3.498-3.457c0.699,0,1.318,0.175,1.64,0.336l-0.268,0.915c-0.283-0.162-0.727-0.309-1.372-0.309
					c-1.493,0-2.3,1.103-2.3,2.462c0,1.506,0.969,2.434,2.26,2.434c0.673,0,1.117-0.175,1.452-0.323L66.942,388.119z"/>
				<path class="st0" d="M67.657,378.81h1.184v9.551h-1.184V378.81z"/>
				<path class="st0" d="M75.61,386.585c0,0.673,0.013,1.265,0.054,1.776h-1.049l-0.067-1.063H74.52
					c-0.309,0.526-0.995,1.212-2.152,1.212c-1.023,0-2.248-0.565-2.248-2.852v-3.807h1.184v3.604c0,1.238,0.377,2.072,1.452,2.072
					c0.794,0,1.346-0.551,1.562-1.075c0.067-0.175,0.106-0.39,0.106-0.606v-3.995h1.184V386.585z"/>
				<path class="st0" d="M77.335,381.85l1.425,3.847c0.149,0.43,0.31,0.941,0.418,1.332h0.026c0.121-0.39,0.256-0.889,0.417-1.359
					l1.292-3.82h1.251l-1.776,4.64c-0.848,2.233-1.426,3.377-2.233,4.076c-0.578,0.511-1.157,0.714-1.452,0.768l-0.297-0.996
					c0.297-0.093,0.686-0.281,1.036-0.578c0.323-0.255,0.727-0.712,0.996-1.318c0.054-0.121,0.093-0.214,0.093-0.283
					c0-0.067-0.026-0.16-0.08-0.309l-2.408-5.999H77.335z"/>
				<path class="st0" d="M83.097,385.32c0.026,1.601,1.049,2.26,2.233,2.26c0.847,0,1.358-0.147,1.802-0.335l0.201,0.846
					c-0.417,0.189-1.129,0.404-2.165,0.404c-2.005,0-3.202-1.318-3.202-3.282s1.157-3.511,3.053-3.511
					c2.125,0,2.691,1.87,2.691,3.067c0,0.243-0.026,0.431-0.041,0.552H83.097z M86.567,384.472c0.013-0.753-0.309-1.923-1.642-1.923
					c-1.196,0-1.722,1.103-1.815,1.923H86.567z"/>
				<path class="st0" d="M90.688,383.975c0-0.835-0.026-1.508-0.054-2.125h1.063l0.054,1.116h0.026
					c0.485-0.794,1.251-1.265,2.313-1.265c1.575,0,2.758,1.332,2.758,3.31c0,2.34-1.425,3.498-2.959,3.498
					c-0.861,0-1.614-0.377-2.005-1.023h-0.028v3.537h-1.17V383.975z M91.858,385.711c0,0.175,0.028,0.337,0.054,0.484
					c0.216,0.822,0.929,1.385,1.776,1.385c1.251,0,1.978-1.021,1.978-2.515c0-1.305-0.686-2.423-1.938-2.423
					c-0.807,0-1.56,0.578-1.789,1.467c-0.041,0.149-0.081,0.323-0.081,0.484V385.711z"/>
				<path class="st0" d="M97.673,383.881c0-0.766-0.013-1.426-0.054-2.031h1.036l0.041,1.278h0.054
					c0.296-0.874,1.008-1.426,1.802-1.426c0.135,0,0.229,0.013,0.337,0.041v1.116c-0.121-0.026-0.242-0.041-0.404-0.041
					c-0.833,0-1.426,0.632-1.588,1.521c-0.026,0.162-0.054,0.35-0.054,0.552v3.47h-1.17V383.881z"/>
				<path class="st0" d="M107.158,385.051c0,2.408-1.668,3.458-3.243,3.458c-1.761,0-3.121-1.292-3.121-3.351
					c0-2.179,1.426-3.457,3.228-3.457C105.893,381.701,107.158,383.061,107.158,385.051z M101.992,385.119
					c0,1.425,0.82,2.501,1.977,2.501c1.13,0,1.978-1.062,1.978-2.529c0-1.103-0.552-2.503-1.951-2.503
					C102.597,382.589,101.992,383.881,101.992,385.119z"/>
				<path class="st0" d="M113.605,378.81v7.87c0,0.578,0.013,1.237,0.054,1.681h-1.062l-0.054-1.13h-0.028
					c-0.363,0.727-1.157,1.279-2.22,1.279c-1.573,0-2.784-1.333-2.784-3.31c-0.013-2.166,1.332-3.498,2.919-3.498
					c0.995,0,1.668,0.471,1.964,0.995h0.026v-3.887H113.605z M112.421,384.5c0-0.149-0.013-0.35-0.053-0.498
					c-0.176-0.753-0.822-1.372-1.709-1.372c-1.225,0-1.951,1.077-1.951,2.516c0,1.318,0.645,2.408,1.923,2.408
					c0.794,0,1.521-0.524,1.736-1.413c0.039-0.16,0.053-0.322,0.053-0.511V384.5z"/>
				<path class="st0" d="M120.348,386.585c0,0.673,0.013,1.265,0.054,1.776h-1.049l-0.067-1.063h-0.028
					c-0.309,0.526-0.995,1.212-2.152,1.212c-1.023,0-2.248-0.565-2.248-2.852v-3.807h1.184v3.604c0,1.238,0.377,2.072,1.452,2.072
					c0.794,0,1.346-0.551,1.562-1.075c0.067-0.175,0.106-0.39,0.106-0.606v-3.995h1.184V386.585z"/>
				<path class="st0" d="M126.285,388.119c-0.309,0.162-0.995,0.376-1.87,0.376c-1.964,0-3.241-1.332-3.241-3.323
					c0-2.003,1.372-3.457,3.498-3.457c0.699,0,1.318,0.175,1.64,0.336l-0.268,0.915c-0.283-0.162-0.727-0.309-1.372-0.309
					c-1.493,0-2.3,1.103-2.3,2.462c0,1.506,0.969,2.434,2.26,2.434c0.673,0,1.117-0.175,1.452-0.323L126.285,388.119z"/>
				<path class="st0" d="M131.562,388.119c-0.309,0.162-0.995,0.376-1.87,0.376c-1.964,0-3.241-1.332-3.241-3.323
					c0-2.003,1.372-3.457,3.498-3.457c0.699,0,1.318,0.175,1.64,0.336l-0.268,0.915c-0.283-0.162-0.727-0.309-1.372-0.309
					c-1.493,0-2.3,1.103-2.3,2.462c0,1.506,0.969,2.434,2.26,2.434c0.673,0,1.117-0.175,1.452-0.323L131.562,388.119z"/>
				<path class="st0" d="M133.597,380.02c0.013,0.404-0.283,0.726-0.753,0.726c-0.417,0-0.712-0.322-0.712-0.726
					c0-0.418,0.309-0.74,0.739-0.74C133.314,379.28,133.597,379.602,133.597,380.02z M132.279,388.361v-6.511h1.184v6.511H132.279z"
					/>
				<path class="st0" d="M140.648,385.051c0,2.408-1.668,3.458-3.243,3.458c-1.761,0-3.121-1.292-3.121-3.351
					c0-2.179,1.426-3.457,3.228-3.457C139.383,381.701,140.648,383.061,140.648,385.051z M135.482,385.119
					c0,1.425,0.82,2.501,1.977,2.501c1.13,0,1.978-1.062,1.978-2.529c0-1.103-0.552-2.503-1.951-2.503
					C136.086,382.589,135.482,383.881,135.482,385.119z M139.235,379.038l-1.64,1.923h-0.848l1.183-1.923H139.235z"/>
				<path class="st0" d="M141.472,383.611c0-0.672-0.013-1.224-0.054-1.761h1.049l0.068,1.075h0.026
					c0.323-0.618,1.077-1.224,2.153-1.224c0.9,0,2.3,0.538,2.3,2.771v3.888h-1.184v-3.753c0-1.05-0.39-1.924-1.506-1.924
					c-0.781,0-1.385,0.552-1.588,1.211c-0.054,0.149-0.08,0.35-0.08,0.552v3.914h-1.184V383.611z"/>
				<path class="st0" d="M156.073,378.81v7.87c0,0.578,0.013,1.237,0.054,1.681h-1.062l-0.054-1.13h-0.028
					c-0.363,0.727-1.157,1.279-2.22,1.279c-1.573,0-2.784-1.333-2.784-3.31c-0.013-2.166,1.332-3.498,2.919-3.498
					c0.995,0,1.668,0.471,1.964,0.995h0.026v-3.887H156.073z M154.889,384.5c0-0.149-0.013-0.35-0.053-0.498
					c-0.176-0.753-0.822-1.372-1.709-1.372c-1.225,0-1.951,1.077-1.951,2.516c0,1.318,0.645,2.408,1.923,2.408
					c0.794,0,1.521-0.524,1.736-1.413c0.039-0.16,0.053-0.322,0.053-0.511V384.5z"/>
				<path class="st0" d="M158.027,385.32c0.026,1.601,1.049,2.26,2.232,2.26c0.848,0,1.359-0.147,1.803-0.335l0.201,0.846
					c-0.417,0.189-1.129,0.404-2.165,0.404c-2.005,0-3.202-1.318-3.202-3.282s1.157-3.511,3.053-3.511
					c2.125,0,2.691,1.87,2.691,3.067c0,0.243-0.026,0.431-0.041,0.552H158.027z M161.498,384.472
					c0.013-0.753-0.309-1.923-1.642-1.923c-1.196,0-1.722,1.103-1.815,1.923H161.498z"/>
				<path class="st0" d="M166.076,381.85l1.278,3.658c0.216,0.593,0.39,1.13,0.524,1.668h0.041c0.149-0.538,0.337-1.075,0.552-1.668
					l1.265-3.658h1.237l-2.555,6.511h-1.13l-2.475-6.511H166.076z"/>
				<path class="st0" d="M172.738,380.02c0.013,0.404-0.283,0.726-0.753,0.726c-0.417,0-0.712-0.322-0.712-0.726
					c0-0.418,0.309-0.74,0.739-0.74C172.455,379.28,172.738,379.602,172.738,380.02z M171.419,388.361v-6.511h1.184v6.511H171.419z"
					/>
				<path class="st0" d="M179.519,378.81v7.87c0,0.578,0.013,1.237,0.054,1.681h-1.063l-0.053-1.13h-0.028
					c-0.363,0.727-1.157,1.279-2.22,1.279c-1.573,0-2.784-1.333-2.784-3.31c-0.013-2.166,1.332-3.498,2.919-3.498
					c0.995,0,1.668,0.471,1.964,0.995h0.026v-3.887H179.519z M178.335,384.5c0-0.149-0.013-0.35-0.053-0.498
					c-0.176-0.753-0.822-1.372-1.709-1.372c-1.225,0-1.951,1.077-1.951,2.516c0,1.318,0.645,2.408,1.923,2.408
					c0.794,0,1.521-0.524,1.736-1.413c0.039-0.16,0.053-0.322,0.053-0.511V384.5z"/>
				<path class="st0" d="M181.473,385.32c0.026,1.601,1.049,2.26,2.233,2.26c0.847,0,1.358-0.147,1.802-0.335l0.201,0.846
					c-0.417,0.189-1.129,0.404-2.165,0.404c-2.005,0-3.202-1.318-3.202-3.282s1.157-3.511,3.053-3.511
					c2.125,0,2.691,1.87,2.691,3.067c0,0.243-0.026,0.431-0.041,0.552H181.473z M184.944,384.472
					c0.013-0.753-0.309-1.923-1.642-1.923c-1.196,0-1.722,1.103-1.815,1.923H184.944z"/>
				<path class="st0" d="M192.776,385.051c0,2.408-1.668,3.458-3.243,3.458c-1.761,0-3.121-1.292-3.121-3.351
					c0-2.179,1.426-3.457,3.228-3.457C191.512,381.701,192.776,383.061,192.776,385.051z M187.611,385.119
					c0,1.425,0.82,2.501,1.977,2.501c1.13,0,1.978-1.062,1.978-2.529c0-1.103-0.552-2.503-1.951-2.503
					C188.215,382.589,187.611,383.881,187.611,385.119z"/>
				<path class="st0" d="M193.439,387.15c0.35,0.229,0.969,0.471,1.56,0.471c0.861,0,1.266-0.43,1.266-0.969
					c0-0.565-0.337-0.874-1.212-1.197c-1.17-0.417-1.722-1.062-1.722-1.843c0-1.049,0.848-1.91,2.248-1.91
					c0.659,0,1.237,0.188,1.6,0.404l-0.296,0.861c-0.255-0.162-0.726-0.377-1.332-0.377c-0.699,0-1.09,0.404-1.09,0.889
					c0,0.538,0.39,0.781,1.238,1.103c1.129,0.431,1.707,0.995,1.707,1.964c0,1.144-0.887,1.951-2.434,1.951
					c-0.712,0-1.372-0.175-1.83-0.443L193.439,387.15z"/>
			</g>
		</g>
		<line class="st1" x1="0.5" y1="43.108" x2="238.28" y2="43.108"/>
		<line class="st1" x1="0.5" y1="455.221" x2="238.28" y2="455.221"/>
		<g>
			<path class="st0" d="M78.741,70.672c0.592-0.108,1.412-0.188,2.529-0.188c1.211,0,2.098,0.255,2.676,0.739
				c0.539,0.444,0.889,1.158,0.889,2.005c0,0.861-0.269,1.575-0.781,2.058c-0.659,0.66-1.694,0.969-2.866,0.969
				c-0.309,0-0.592-0.013-0.807-0.054v3.418h-1.64V70.672z M80.381,74.895c0.202,0.054,0.471,0.068,0.807,0.068
				c1.238,0,1.991-0.606,1.991-1.668c0-1.009-0.699-1.547-1.843-1.547c-0.457,0-0.781,0.039-0.956,0.08V74.895z"/>
			<path class="st0" d="M85.928,70.551h1.654v7.682h3.726v1.385h-5.38V70.551z"/>
			<path class="st0" d="M94.096,77.048l-0.779,2.57h-1.709l2.906-9.067h2.111l2.947,9.067h-1.776l-0.822-2.57H94.096z
				 M96.693,75.797l-0.714-2.233c-0.175-0.551-0.323-1.17-0.457-1.694h-0.026c-0.135,0.524-0.269,1.157-0.431,1.694l-0.699,2.233
				H96.693z"/>
			<path class="st0" d="M101.149,71.936h-2.583v-1.385h6.847v1.385h-2.609v7.682h-1.655V71.936z"/>
			<path class="st0" d="M106.978,77.048l-0.779,2.57h-1.709l2.906-9.067h2.111l2.947,9.067h-1.776l-0.822-2.57H106.978z
				 M109.575,75.797l-0.714-2.233c-0.175-0.551-0.323-1.17-0.457-1.694h-0.026c-0.135,0.524-0.269,1.157-0.431,1.694l-0.699,2.233
				H109.575z"/>
			<path class="st0" d="M113.386,70.551h5.233v1.358h-3.579v2.503h3.337v1.359h-3.337v3.847h-1.654V70.551z"/>
			<path class="st0" d="M127.945,74.99c0,3.04-1.843,4.775-4.346,4.775c-2.555,0-4.171-1.951-4.171-4.614
				c0-2.785,1.75-4.749,4.305-4.749C126.384,70.402,127.945,72.407,127.945,74.99z M121.178,75.124c0,1.844,0.928,3.31,2.516,3.31
				c1.601,0,2.501-1.48,2.501-3.377c0-1.707-0.847-3.323-2.501-3.323C122.052,71.734,121.178,73.255,121.178,75.124z"/>
			<path class="st0" d="M129.04,70.672c0.618-0.108,1.547-0.188,2.501-0.188c1.305,0,2.193,0.214,2.798,0.726
				c0.498,0.418,0.781,1.05,0.781,1.817c0,1.17-0.794,1.964-1.642,2.274v0.039c0.645,0.242,1.036,0.874,1.265,1.75
				c0.283,1.129,0.524,2.179,0.712,2.529h-1.707c-0.135-0.269-0.35-1.01-0.606-2.14c-0.255-1.183-0.686-1.56-1.627-1.587h-0.835
				v3.726h-1.64V70.672z M130.68,74.681h0.982c1.117,0,1.817-0.593,1.817-1.493c0-0.996-0.699-1.454-1.776-1.454
				c-0.524,0-0.861,0.041-1.023,0.081V74.681z"/>
			<path class="st0" d="M144.017,75.918c-0.054-1.17-0.121-2.583-0.108-3.807h-0.041c-0.296,1.103-0.672,2.328-1.075,3.47
				l-1.318,3.929h-1.279l-1.211-3.875c-0.35-1.157-0.672-2.394-0.915-3.524h-0.026c-0.041,1.184-0.095,2.624-0.162,3.861
				l-0.201,3.646h-1.547l0.605-9.067h2.179l1.184,3.645c0.322,1.063,0.605,2.14,0.833,3.148h0.041
				c0.242-0.982,0.552-2.098,0.902-3.161l1.251-3.632h2.152l0.524,9.067h-1.614L144.017,75.918z"/>
			<path class="st0" d="M148.892,77.048l-0.779,2.57h-1.709l2.906-9.067h2.111l2.947,9.067h-1.776l-0.822-2.57H148.892z
				 M151.489,75.797l-0.714-2.233c-0.175-0.551-0.323-1.17-0.457-1.694h-0.026c-0.135,0.524-0.269,1.157-0.431,1.694l-0.699,2.233
				H151.489z"/>
			<path class="st0" d="M155.259,77.814c0.538,0.31,1.345,0.578,2.193,0.578c1.063,0,1.655-0.497,1.655-1.237
				c0-0.686-0.457-1.09-1.614-1.506c-1.493-0.539-2.449-1.333-2.449-2.637c0-1.48,1.238-2.611,3.202-2.611
				c0.982,0,1.709,0.216,2.179,0.457l-0.404,1.332c-0.323-0.175-0.956-0.43-1.803-0.43c-1.049,0-1.506,0.565-1.506,1.09
				c0,0.699,0.524,1.023,1.735,1.493c1.575,0.592,2.341,1.385,2.341,2.691c0,1.452-1.103,2.717-3.444,2.717
				c-0.954,0-1.951-0.269-2.448-0.565L155.259,77.814z"/>
		</g>
		<g>
			<path class="st0" d="M98.067,240.93v9.067h-1.654v-9.067H98.067z"/>
			<path class="st0" d="M99.63,249.997v-9.067h1.882l2.341,3.888c0.606,1.008,1.13,2.057,1.547,3.039h0.028
				c-0.108-1.211-0.149-2.38-0.149-3.766v-3.161h1.534v9.067h-1.709l-2.367-3.983c-0.578-0.995-1.184-2.111-1.629-3.134
				l-0.039,0.013c0.067,1.17,0.08,2.367,0.08,3.861v3.243H99.63z"/>
			<path class="st0" d="M114.89,249.727c-0.39,0.202-1.251,0.404-2.341,0.404c-2.879,0-4.628-1.802-4.628-4.56
				c0-2.986,2.073-4.79,4.844-4.79c1.09,0,1.869,0.229,2.206,0.404l-0.363,1.318c-0.431-0.188-1.023-0.35-1.776-0.35
				c-1.843,0-3.174,1.157-3.174,3.336c0,1.991,1.17,3.269,3.161,3.269c0.672,0,1.372-0.134,1.802-0.337L114.89,249.727z"/>
			<path class="st0" d="M115.971,240.93h1.654v7.682h3.726v1.385h-5.38V240.93z"/>
			<path class="st0" d="M123.466,240.93v5.287c0,1.776,0.74,2.596,1.857,2.596c1.196,0,1.91-0.82,1.91-2.596v-5.287h1.655v5.179
				c0,2.798-1.439,4.035-3.619,4.035c-2.099,0-3.458-1.17-3.458-4.022v-5.192H123.466z"/>
			<path class="st0" d="M132.511,249.997v-3.78l-2.864-5.287h1.882l1.09,2.327c0.31,0.673,0.539,1.184,0.781,1.803h0.026
				c0.229-0.578,0.485-1.144,0.794-1.803l1.09-2.327h1.87l-3.014,5.246v3.821H132.511z"/>
			<path class="st0" d="M142.753,245.974h-3.418v2.663h3.821v1.359h-5.475v-9.067h5.274v1.358h-3.62v2.341h3.418V245.974z"/>
		</g>
		<g>
			<g>
				<path class="st0" d="M13.741,470.852c0.661,0.338,1.679,0.677,2.728,0.677c1.13,0,1.727-0.468,1.727-1.178
					c0-0.678-0.517-1.066-1.823-1.534c-1.809-0.63-2.986-1.63-2.986-3.213c0-1.856,1.55-3.277,4.116-3.277
					c1.228,0,2.131,0.259,2.777,0.549l-0.549,1.985c-0.436-0.209-1.211-0.517-2.277-0.517c-1.065,0-1.581,0.485-1.581,1.05
					c0,0.694,0.614,1,2.018,1.533c1.92,0.711,2.825,1.711,2.825,3.245c0,1.824-1.404,3.374-4.39,3.374
					c-1.243,0-2.47-0.323-3.084-0.663L13.741,470.852z"/>
				<path class="st0" d="M29.404,469.35c0,2.891-2.051,4.214-4.166,4.214c-2.308,0-4.084-1.518-4.084-4.068s1.679-4.181,4.213-4.181
					C27.79,465.314,29.404,466.977,29.404,469.35z M23.688,469.431c0,1.355,0.565,2.373,1.614,2.373
					c0.953,0,1.567-0.952,1.567-2.373c0-1.179-0.452-2.374-1.567-2.374C24.125,467.057,23.688,468.269,23.688,469.431z"/>
				<path class="st0" d="M30.117,461.924h2.454v11.462h-2.454V461.924z"/>
				<path class="st0" d="M36.288,463.297c0,0.678-0.517,1.226-1.325,1.226c-0.774,0-1.291-0.548-1.275-1.226
					c-0.016-0.71,0.501-1.243,1.292-1.243C35.771,462.053,36.27,462.587,36.288,463.297z M33.752,473.386v-7.895h2.454v7.895H33.752
					z"/>
				<path class="st0" d="M43.295,473.192c-0.436,0.195-1.259,0.356-2.196,0.356c-2.55,0-4.18-1.55-4.18-4.037
					c0-2.308,1.581-4.197,4.519-4.197c0.647,0,1.357,0.113,1.873,0.306l-0.388,1.824c-0.29-0.129-0.727-0.242-1.372-0.242
					c-1.291,0-2.131,0.92-2.115,2.212c0,1.452,0.969,2.211,2.164,2.211c0.581,0,1.033-0.097,1.405-0.242L43.295,473.192z"/>
				<path class="st0" d="M46.381,463.297c0,0.678-0.517,1.226-1.324,1.226c-0.776,0-1.292-0.548-1.275-1.226
					c-0.017-0.71,0.499-1.243,1.291-1.243C45.865,462.053,46.365,462.587,46.381,463.297z M43.847,473.386v-7.895h2.454v7.895
					H43.847z"/>
				<path class="st0" d="M50.209,463.232v2.26h1.76v1.809h-1.76v2.856c0,0.953,0.226,1.389,0.969,1.389
					c0.306,0,0.549-0.033,0.727-0.064l0.016,1.856c-0.323,0.129-0.904,0.21-1.598,0.21c-0.791,0-1.452-0.275-1.84-0.678
					c-0.452-0.468-0.678-1.228-0.678-2.341V467.3h-1.049v-1.809h1.049v-1.711L50.209,463.232z"/>
				<path class="st0" d="M57.073,473.386l-0.146-0.791h-0.049c-0.517,0.63-1.324,0.969-2.26,0.969c-1.598,0-2.551-1.162-2.551-2.421
					c0-2.051,1.84-3.035,4.633-3.019v-0.113c0-0.419-0.226-1.017-1.437-1.017c-0.807,0-1.663,0.275-2.179,0.598l-0.452-1.583
					c0.549-0.306,1.631-0.694,3.068-0.694c2.632,0,3.47,1.55,3.47,3.406v2.745c0,0.758,0.033,1.485,0.113,1.922H57.073z
					 M56.783,469.657c-1.292-0.017-2.292,0.29-2.292,1.242c0,0.63,0.419,0.937,0.967,0.937c0.614,0,1.115-0.404,1.276-0.904
					c0.032-0.129,0.049-0.275,0.049-0.419V469.657z"/>
				<path class="st0" d="M60.305,468.09c0-1.162-0.033-1.92-0.064-2.599h2.115l0.08,1.454H62.5c0.404-1.146,1.372-1.631,2.131-1.631
					c0.226,0,0.339,0,0.517,0.033v2.308c-0.177-0.033-0.386-0.064-0.661-0.064c-0.904,0-1.518,0.484-1.68,1.242
					c-0.032,0.162-0.047,0.356-0.047,0.549v4.004h-2.454V468.09z"/>
				<path class="st0" d="M74.015,473.192c-0.435,0.195-1.259,0.356-2.195,0.356c-2.551,0-4.181-1.55-4.181-4.037
					c0-2.308,1.583-4.197,4.52-4.197c0.645,0,1.355,0.113,1.872,0.306l-0.386,1.824c-0.29-0.129-0.727-0.242-1.372-0.242
					c-1.292,0-2.131,0.92-2.115,2.212c0,1.452,0.969,2.211,2.164,2.211c0.581,0,1.033-0.097,1.404-0.242L74.015,473.192z"/>
				<path class="st0" d="M82.187,469.35c0,2.891-2.051,4.214-4.166,4.214c-2.308,0-4.084-1.518-4.084-4.068s1.679-4.181,4.213-4.181
					C80.573,465.314,82.187,466.977,82.187,469.35z M76.472,469.431c0,1.355,0.565,2.373,1.614,2.373
					c0.953,0,1.567-0.952,1.567-2.373c0-1.179-0.452-2.374-1.567-2.374C76.908,467.057,76.472,468.269,76.472,469.431z"/>
				<path class="st0" d="M85.647,463.232v2.26h1.759v1.809h-1.759v2.856c0,0.953,0.226,1.389,0.969,1.389
					c0.306,0,0.548-0.033,0.726-0.064l0.017,1.856c-0.323,0.129-0.904,0.21-1.598,0.21c-0.791,0-1.454-0.275-1.84-0.678
					c-0.452-0.468-0.678-1.228-0.678-2.341V467.3h-1.049v-1.809h1.049v-1.711L85.647,463.232z"/>
				<path class="st0" d="M90.556,463.297c0,0.678-0.517,1.226-1.324,1.226c-0.776,0-1.292-0.548-1.275-1.226
					c-0.017-0.71,0.499-1.243,1.291-1.243C90.04,462.053,90.54,462.587,90.556,463.297z M88.022,473.386v-7.895h2.454v7.895H88.022z
					"/>
				<path class="st0" d="M91.01,471.981l2.487-3.115c0.452-0.532,0.807-0.92,1.259-1.404v-0.033h-3.471v-1.938h6.458v1.47
					l-2.374,2.986c-0.435,0.517-0.839,1.017-1.291,1.452v0.033h3.794v1.953H91.01V471.981z"/>
				<path class="st0" d="M102.895,473.386l-0.145-0.791h-0.049c-0.517,0.63-1.324,0.969-2.261,0.969c-1.598,0-2.55-1.162-2.55-2.421
					c0-2.051,1.84-3.035,4.633-3.019v-0.113c0-0.419-0.226-1.017-1.437-1.017c-0.807,0-1.663,0.275-2.179,0.598l-0.452-1.583
					c0.548-0.306,1.63-0.694,3.067-0.694c2.632,0,3.471,1.55,3.471,3.406v2.745c0,0.758,0.032,1.485,0.113,1.922H102.895z
					 M102.605,469.657c-1.291-0.017-2.292,0.29-2.292,1.242c0,0.63,0.419,0.937,0.969,0.937c0.614,0,1.113-0.404,1.275-0.904
					c0.033-0.129,0.049-0.275,0.049-0.419V469.657z"/>
				<path class="st0" d="M112.053,473.192c-0.436,0.195-1.259,0.356-2.196,0.356c-2.55,0-4.18-1.55-4.18-4.037
					c0-2.308,1.581-4.197,4.519-4.197c0.647,0,1.357,0.113,1.873,0.306l-0.388,1.824c-0.29-0.129-0.727-0.242-1.372-0.242
					c-1.291,0-2.131,0.92-2.115,2.212c0,1.452,0.969,2.211,2.164,2.211c0.581,0,1.033-0.097,1.405-0.242L112.053,473.192z"/>
				<path class="st0" d="M115.139,463.297c0,0.678-0.517,1.226-1.324,1.226c-0.776,0-1.292-0.548-1.275-1.226
					c-0.017-0.71,0.499-1.243,1.291-1.243S115.123,462.587,115.139,463.297z M112.605,473.386v-7.895h2.454v7.895H112.605z"/>
				<path class="st0" d="M124.02,469.35c0,2.891-2.049,4.214-4.164,4.214c-2.31,0-4.084-1.518-4.084-4.068s1.679-4.181,4.213-4.181
					C122.406,465.314,124.02,466.977,124.02,469.35z M118.306,469.431c0,1.355,0.565,2.373,1.614,2.373
					c0.952,0,1.566-0.952,1.566-2.373c0-1.179-0.452-2.374-1.566-2.374C118.741,467.057,118.306,468.269,118.306,469.431z
					 M122.47,462.053l-1.969,2.454h-1.696l1.389-2.454H122.47z"/>
				<path class="st0" d="M124.735,468.01c0-0.985-0.033-1.824-0.064-2.519h2.131l0.113,1.082h0.049
					c0.322-0.501,1.129-1.259,2.437-1.259c1.614,0,2.825,1.066,2.825,3.39v4.682h-2.453v-4.375c0-1.017-0.356-1.711-1.243-1.711
					c-0.678,0-1.082,0.468-1.243,0.92c-0.064,0.145-0.096,0.386-0.096,0.613v4.553h-2.454V468.01z"/>
				<path class="st0" d="M135.847,468.139c0-1.033-0.033-1.92-0.064-2.647h2.131l0.113,1.098h0.032
					c0.582-0.839,1.485-1.275,2.632-1.275c1.727,0,3.277,1.501,3.277,4.02c0,2.873-1.823,4.23-3.583,4.23
					c-0.953,0-1.696-0.388-2.051-0.904h-0.032v3.922h-2.454V468.139z M138.301,469.996c0,0.193,0.016,0.371,0.047,0.517
					c0.162,0.661,0.727,1.162,1.438,1.162c1.065,0,1.694-0.889,1.694-2.228c0-1.259-0.565-2.211-1.663-2.211
					c-0.694,0-1.308,0.517-1.47,1.242c-0.032,0.129-0.047,0.29-0.047,0.436V469.996z"/>
				<path class="st0" d="M146.635,470.222c0.081,1.016,1.082,1.501,2.228,1.501c0.84,0,1.518-0.113,2.179-0.323l0.323,1.663
					c-0.807,0.323-1.793,0.485-2.858,0.485c-2.68,0-4.213-1.55-4.213-4.02c0-2.002,1.242-4.214,3.987-4.214
					c2.55,0,3.519,1.986,3.519,3.939c0,0.419-0.049,0.791-0.08,0.969H146.635z M149.526,468.543c0-0.597-0.259-1.597-1.389-1.597
					c-1.033,0-1.452,0.936-1.517,1.597H149.526z"/>
				<path class="st0" d="M152.467,468.09c0-1.162-0.032-1.92-0.064-2.599h2.115l0.081,1.454h0.064
					c0.404-1.146,1.372-1.631,2.131-1.631c0.226,0,0.339,0,0.517,0.033v2.308c-0.177-0.033-0.388-0.064-0.662-0.064
					c-0.904,0-1.517,0.484-1.679,1.242c-0.033,0.162-0.049,0.356-0.049,0.549v4.004h-2.454V468.09z"/>
				<path class="st0" d="M157.782,471.238c0.452,0.275,1.388,0.598,2.115,0.598c0.743,0,1.049-0.259,1.049-0.663
					c0-0.404-0.242-0.597-1.162-0.904c-1.63-0.548-2.26-1.437-2.244-2.373c0-1.468,1.259-2.583,3.213-2.583
					c0.92,0,1.743,0.21,2.228,0.452l-0.436,1.696c-0.355-0.195-1.033-0.452-1.711-0.452c-0.597,0-0.936,0.242-0.936,0.645
					c0,0.371,0.306,0.565,1.275,0.904c1.501,0.517,2.131,1.275,2.148,2.437c0,1.47-1.163,2.551-3.423,2.551
					c-1.033,0-1.953-0.226-2.55-0.549L157.782,471.238z"/>
				<path class="st0" d="M171.796,469.35c0,2.891-2.049,4.214-4.164,4.214c-2.309,0-4.084-1.518-4.084-4.068
					s1.679-4.181,4.213-4.181C170.182,465.314,171.796,466.977,171.796,469.35z M166.082,469.431c0,1.355,0.565,2.373,1.614,2.373
					c0.952,0,1.566-0.952,1.566-2.373c0-1.179-0.452-2.374-1.566-2.374C166.518,467.057,166.082,468.269,166.082,469.431z"/>
				<path class="st0" d="M172.511,468.01c0-0.985-0.032-1.824-0.064-2.519h2.131l0.113,1.082h0.049
					c0.323-0.501,1.13-1.259,2.438-1.259c1.614,0,2.825,1.066,2.825,3.39v4.682h-2.454v-4.375c0-1.017-0.355-1.711-1.243-1.711
					c-0.677,0-1.08,0.468-1.242,0.92c-0.064,0.145-0.097,0.386-0.097,0.613v4.553h-2.454V468.01z"/>
				<path class="st0" d="M185.657,473.386l-0.145-0.791h-0.049c-0.517,0.63-1.324,0.969-2.261,0.969c-1.598,0-2.55-1.162-2.55-2.421
					c0-2.051,1.84-3.035,4.633-3.019v-0.113c0-0.419-0.226-1.017-1.437-1.017c-0.807,0-1.663,0.275-2.179,0.598l-0.452-1.583
					c0.548-0.306,1.63-0.694,3.067-0.694c2.632,0,3.471,1.55,3.471,3.406v2.745c0,0.758,0.032,1.485,0.113,1.922H185.657z
					 M185.367,469.657c-1.291-0.017-2.292,0.29-2.292,1.242c0,0.63,0.419,0.937,0.969,0.937c0.614,0,1.113-0.404,1.275-0.904
					c0.033-0.129,0.049-0.275,0.049-0.419V469.657z"/>
				<path class="st0" d="M188.89,461.924h2.454v11.462h-2.454V461.924z"/>
				<path class="st0" d="M195.058,463.297c0,0.678-0.517,1.226-1.324,1.226c-0.776,0-1.292-0.548-1.275-1.226
					c-0.017-0.71,0.499-1.243,1.291-1.243S195.043,462.587,195.058,463.297z M192.524,473.386v-7.895h2.454v7.895H192.524z"/>
				<path class="st0" d="M195.512,471.981l2.487-3.115c0.452-0.532,0.807-0.92,1.259-1.404v-0.033h-3.471v-1.938h6.458v1.47
					l-2.374,2.986c-0.435,0.517-0.839,1.017-1.291,1.452v0.033h3.794v1.953h-6.861V471.981z"/>
				<path class="st0" d="M207.397,473.386l-0.145-0.791h-0.049c-0.517,0.63-1.324,0.969-2.261,0.969c-1.598,0-2.55-1.162-2.55-2.421
					c0-2.051,1.84-3.035,4.633-3.019v-0.113c0-0.419-0.226-1.017-1.437-1.017c-0.807,0-1.663,0.275-2.179,0.598l-0.452-1.583
					c0.548-0.306,1.63-0.694,3.067-0.694c2.632,0,3.471,1.55,3.471,3.406v2.745c0,0.758,0.032,1.485,0.113,1.922H207.397z
					 M207.107,469.657c-1.291-0.017-2.292,0.29-2.292,1.242c0,0.63,0.419,0.937,0.969,0.937c0.614,0,1.113-0.404,1.275-0.904
					c0.033-0.129,0.049-0.275,0.049-0.419V469.657z"/>
				<path class="st0" d="M218.282,461.924v9.105c0,0.887,0.033,1.823,0.064,2.357h-2.179l-0.113-1.163h-0.032
					c-0.501,0.889-1.452,1.341-2.47,1.341c-1.873,0-3.374-1.598-3.374-4.052c-0.016-2.663,1.647-4.197,3.536-4.197
					c0.967,0,1.727,0.339,2.082,0.889h0.032v-4.279H218.282z M215.828,468.833c0-0.129-0.016-0.306-0.032-0.435
					c-0.146-0.662-0.678-1.211-1.437-1.211c-1.115,0-1.696,1-1.696,2.244c0,1.339,0.662,2.179,1.68,2.179
					c0.71,0,1.275-0.485,1.42-1.179c0.049-0.177,0.064-0.355,0.064-0.565V468.833z"/>
				<path class="st0" d="M223.937,473.386l-0.145-0.791h-0.049c-0.517,0.63-1.324,0.969-2.261,0.969c-1.598,0-2.55-1.162-2.55-2.421
					c0-2.051,1.84-3.035,4.633-3.019v-0.113c0-0.419-0.226-1.017-1.437-1.017c-0.807,0-1.663,0.275-2.179,0.598l-0.452-1.583
					c0.548-0.306,1.63-0.694,3.067-0.694c2.632,0,3.471,1.55,3.471,3.406v2.745c0,0.758,0.032,1.485,0.113,1.922H223.937z
					 M223.647,469.657c-1.291-0.017-2.292,0.29-2.292,1.242c0,0.63,0.419,0.937,0.969,0.937c0.614,0,1.113-0.404,1.275-0.904
					c0.033-0.129,0.049-0.275,0.049-0.419V469.657z"/>
			</g>
		</g>
	</g>
</g>
</svg>